<svg width="32" height="32" viewBox="0 0 32 32" fill="none" xmlns="http://www.w3.org/2000/svg">
<mask id="path-1-outside-1_23_18" maskUnits="userSpaceOnUse" x="0" y="0" width="32" height="32" fill="black">
<rect fill="white" width="32" height="32"/>
<path d="M28.9522 14.045C28.8037 14.0457 28.6556 14.0619 28.5107 14.0932L26.4584 10.6951C26.6434 10.4737 26.7757 10.2163 26.846 9.94096C26.9163 9.66562 26.9229 9.37892 26.8655 9.10086C26.808 8.82281 26.6879 8.56009 26.5133 8.33102C26.3388 8.10195 26.1142 7.91205 25.8551 7.77457C25.5959 7.63709 25.3086 7.55532 25.013 7.53499C24.7175 7.51465 24.4208 7.55623 24.1438 7.65682C23.8668 7.75741 23.616 7.9146 23.409 8.11742C23.202 8.32023 23.0438 8.5638 22.9453 8.83113H19.9691C19.8068 8.3803 19.476 8.00276 19.0404 7.77106C18.6047 7.53936 18.0949 7.46985 17.6089 7.57589L15.5566 4.17514C15.7421 3.9537 15.8748 3.69619 15.9454 3.42059C16.016 3.145 16.0229 2.85798 15.9655 2.57959C15.9081 2.30121 15.7878 2.03817 15.6131 1.80886C15.4383 1.57956 15.2133 1.38952 14.9538 1.25203C14.6943 1.11454 14.4066 1.03291 14.1107 1.01286C13.8148 0.992801 13.5178 1.0348 13.2407 1.13592C12.9635 1.23704 12.7127 1.39484 12.506 1.59829C12.2992 1.80173 12.1413 2.04592 12.0435 2.31379H9.06725C8.97018 2.04479 8.81274 1.79936 8.60597 1.59475C8.3992 1.39014 8.14811 1.23129 7.87033 1.12937C7.59256 1.02744 7.29482 0.984906 6.99803 1.00474C6.70124 1.02458 6.41259 1.10632 6.15233 1.24421C5.89208 1.3821 5.66653 1.5728 5.49152 1.80294C5.31651 2.03307 5.19629 2.29705 5.13928 2.57636C5.08228 2.85566 5.08987 3.14351 5.16154 3.41971C5.2332 3.6959 5.3672 3.95375 5.55413 4.17514L3.50185 7.57719C3.20163 7.51121 2.8897 7.51098 2.58937 7.57653C2.28904 7.64208 2.00809 7.7717 1.76751 7.95572C1.52692 8.13973 1.33293 8.37338 1.20003 8.6392C1.06712 8.90501 0.998752 9.19612 1.00002 9.49077C1.00128 9.78542 1.07215 10.076 1.20733 10.3407C1.34251 10.6055 1.53851 10.8376 1.78066 11.0197C2.02282 11.2019 2.30488 11.3293 2.60576 11.3925C2.90664 11.4556 3.21856 11.453 3.51821 11.3846L5.56503 14.7775C5.26917 15.1191 5.10636 15.5483 5.10437 15.9918C5.10238 16.4354 5.26134 16.8659 5.55413 17.2098L3.50185 20.6119C3.20163 20.5459 2.8897 20.5457 2.58937 20.6112C2.28904 20.6768 2.00809 20.8064 1.76751 20.9904C1.52692 21.1744 1.33293 21.4081 1.20003 21.6739C1.06712 21.9397 0.998752 22.2308 1.00002 22.5254C1.00128 22.8201 1.07215 23.1107 1.20733 23.3754C1.34251 23.6402 1.53851 23.8723 1.78066 24.0544C2.02282 24.2365 2.30488 24.3639 2.60576 24.4271C2.90664 24.4903 3.21856 24.4876 3.51821 24.4193L5.56503 27.8122C5.37714 28.0327 5.24198 28.2898 5.16905 28.5656C5.09612 28.8413 5.08718 29.129 5.14286 29.4084C5.19854 29.6878 5.3175 29.9522 5.49137 30.1829C5.66524 30.4137 5.88981 30.6052 6.14932 30.7441C6.40882 30.883 6.69697 30.9658 6.99352 30.9869C7.29008 31.0079 7.58785 30.9666 7.86592 30.8658C8.144 30.765 8.39564 30.6072 8.60318 30.4035C8.81071 30.1998 8.96911 29.9551 9.06725 29.6866H12.0435C12.1408 29.9562 12.2988 30.2021 12.5063 30.407C12.7139 30.6118 12.9659 30.7706 13.2445 30.8722C13.5232 30.9738 13.8218 31.0156 14.1192 30.9948C14.4166 30.974 14.7056 30.891 14.9659 30.7517C15.2261 30.6124 15.4512 30.4202 15.6254 30.1887C15.7995 29.9571 15.9184 29.6918 15.9737 29.4115C16.029 29.1312 16.0193 28.8428 15.9454 28.5664C15.8714 28.2901 15.735 28.0326 15.5457 27.8122L17.5925 24.4193C18.0802 24.5314 18.5942 24.4655 19.0337 24.2343C19.4733 24.0031 19.8069 23.6233 19.9691 23.1693H22.9453C23.0427 23.4389 23.2007 23.6848 23.4082 23.8896C23.6157 24.0945 23.8677 24.2533 24.1464 24.3549C24.425 24.4564 24.7236 24.4983 25.021 24.4775C25.3185 24.4566 25.6075 24.3737 25.8677 24.2344C26.128 24.0951 26.3531 23.9029 26.5272 23.6713C26.7014 23.4398 26.8203 23.1745 26.8756 22.8942C26.9309 22.6139 26.9212 22.3254 26.8472 22.0491C26.7733 21.7727 26.6368 21.5153 26.4475 21.2949L28.4944 17.902C28.775 17.9644 29.0663 17.9694 29.349 17.9165C29.6318 17.8637 29.8997 17.7542 30.1351 17.5953C30.3705 17.4364 30.5681 17.2316 30.7149 16.9945C30.8617 16.7573 30.9544 16.4932 30.987 16.2193C31.0195 15.9455 30.991 15.6682 30.9036 15.4056C30.8161 15.143 30.6715 14.9011 30.4793 14.6958C30.2872 14.4904 30.0518 14.3263 29.7886 14.2141C29.5254 14.102 29.2404 14.0443 28.9522 14.045V14.045ZM24.864 20.5623C24.4426 20.5633 24.0318 20.6891 23.6882 20.9225C23.3446 21.1559 23.085 21.4855 22.9453 21.8658H19.9691C19.8063 21.4185 19.4781 21.0436 19.0464 20.8117C18.6147 20.5798 18.1092 20.5069 17.6252 20.6067L15.5675 17.1968C15.8553 16.8526 16.0102 16.4241 16.0062 15.9835C16.0023 15.5428 15.8396 15.1169 15.5457 14.7775L17.5925 11.3846C18.0802 11.4968 18.5942 11.4308 19.0337 11.1996C19.4733 10.9684 19.8069 10.5886 19.9691 10.1346H22.9453C23.1076 10.5854 23.4384 10.963 23.8741 11.1947C24.3097 11.4264 24.8196 11.4959 25.3056 11.3898L27.3578 14.7893C27.0682 15.129 26.9092 15.5535 26.9072 15.9918C26.9052 16.4302 27.0604 16.856 27.3469 17.1981L25.2892 20.6067C25.1495 20.5777 25.007 20.5629 24.864 20.5623ZM13.9622 27.0797C13.5407 27.0806 13.1299 27.2064 12.7863 27.4398C12.4427 27.6733 12.1832 28.0028 12.0435 28.3831H9.06725C8.90471 27.9356 8.57666 27.5604 8.14491 27.3282C7.71317 27.0961 7.20755 27.023 6.72335 27.1227L4.66563 23.7141C4.95147 23.3722 5.10627 22.947 5.10429 22.5092C5.10231 22.0714 4.94365 21.6475 4.65472 21.3079L6.707 17.9059C7.19283 18.012 7.70251 17.9427 8.13816 17.7112C8.5738 17.4798 8.90468 17.1025 9.06725 16.6519H12.0435C12.2058 17.1028 12.5365 17.4803 12.9722 17.712C13.4079 17.9437 13.9177 18.0132 14.4037 17.9072L16.4573 21.3066C16.1677 21.646 16.0083 22.07 16.0059 22.5081C16.0034 22.9461 16.1579 23.3718 16.4437 23.7141L14.386 27.1227C14.2467 27.0943 14.1046 27.0799 13.9622 27.0797ZM4.65472 8.27324L6.707 4.87119C7.19283 4.9773 7.70251 4.90798 8.13816 4.67653C8.5738 4.44508 8.90468 4.06784 9.06725 3.61726H12.0435C12.2058 4.06808 12.5365 4.44562 12.9722 4.67732C13.4079 4.90903 13.9177 4.97854 14.4037 4.8725L16.456 8.27064C16.1667 8.61028 16.0079 9.03447 16.0059 9.47255C16.0039 9.91062 16.1589 10.3361 16.4451 10.6781L14.3874 14.0867C13.9032 13.9873 13.3977 14.0605 12.966 14.2926C12.5343 14.5248 12.2062 14.8998 12.0435 15.3472H9.06725C8.90446 14.8998 8.57636 14.5248 8.14469 14.2926C7.71302 14.0605 7.20753 13.9873 6.72335 14.0867L4.66563 10.6781C4.95147 10.3362 5.10627 9.91099 5.10429 9.4732C5.10231 9.03541 4.94365 8.61148 4.65472 8.27194V8.27324Z"/>
</mask>
<path d="M28.9522 14.045C28.8037 14.0457 28.6556 14.0619 28.5107 14.0932L26.4584 10.6951C26.6434 10.4737 26.7757 10.2163 26.846 9.94096C26.9163 9.66562 26.9229 9.37892 26.8655 9.10086C26.808 8.82281 26.6879 8.56009 26.5133 8.33102C26.3388 8.10195 26.1142 7.91205 25.8551 7.77457C25.5959 7.63709 25.3086 7.55532 25.013 7.53499C24.7175 7.51465 24.4208 7.55623 24.1438 7.65682C23.8668 7.75741 23.616 7.9146 23.409 8.11742C23.202 8.32023 23.0438 8.5638 22.9453 8.83113H19.9691C19.8068 8.3803 19.476 8.00276 19.0404 7.77106C18.6047 7.53936 18.0949 7.46985 17.6089 7.57589L15.5566 4.17514C15.7421 3.9537 15.8748 3.69619 15.9454 3.42059C16.016 3.145 16.0229 2.85798 15.9655 2.57959C15.9081 2.30121 15.7878 2.03817 15.6131 1.80886C15.4383 1.57956 15.2133 1.38952 14.9538 1.25203C14.6943 1.11454 14.4066 1.03291 14.1107 1.01286C13.8148 0.992801 13.5178 1.0348 13.2407 1.13592C12.9635 1.23704 12.7127 1.39484 12.506 1.59829C12.2992 1.80173 12.1413 2.04592 12.0435 2.31379H9.06725C8.97018 2.04479 8.81274 1.79936 8.60597 1.59475C8.3992 1.39014 8.14811 1.23129 7.87033 1.12937C7.59256 1.02744 7.29482 0.984906 6.99803 1.00474C6.70124 1.02458 6.41259 1.10632 6.15233 1.24421C5.89208 1.3821 5.66653 1.5728 5.49152 1.80294C5.31651 2.03307 5.19629 2.29705 5.13928 2.57636C5.08228 2.85566 5.08987 3.14351 5.16154 3.41971C5.2332 3.6959 5.3672 3.95375 5.55413 4.17514L3.50185 7.57719C3.20163 7.51121 2.8897 7.51098 2.58937 7.57653C2.28904 7.64208 2.00809 7.7717 1.76751 7.95572C1.52692 8.13973 1.33293 8.37338 1.20003 8.6392C1.06712 8.90501 0.998752 9.19612 1.00002 9.49077C1.00128 9.78542 1.07215 10.076 1.20733 10.3407C1.34251 10.6055 1.53851 10.8376 1.78066 11.0197C2.02282 11.2019 2.30488 11.3293 2.60576 11.3925C2.90664 11.4556 3.21856 11.453 3.51821 11.3846L5.56503 14.7775C5.26917 15.1191 5.10636 15.5483 5.10437 15.9918C5.10238 16.4354 5.26134 16.8659 5.55413 17.2098L3.50185 20.6119C3.20163 20.5459 2.8897 20.5457 2.58937 20.6112C2.28904 20.6768 2.00809 20.8064 1.76751 20.9904C1.52692 21.1744 1.33293 21.4081 1.20003 21.6739C1.06712 21.9397 0.998752 22.2308 1.00002 22.5254C1.00128 22.8201 1.07215 23.1107 1.20733 23.3754C1.34251 23.6402 1.53851 23.8723 1.78066 24.0544C2.02282 24.2365 2.30488 24.3639 2.60576 24.4271C2.90664 24.4903 3.21856 24.4876 3.51821 24.4193L5.56503 27.8122C5.37714 28.0327 5.24198 28.2898 5.16905 28.5656C5.09612 28.8413 5.08718 29.129 5.14286 29.4084C5.19854 29.6878 5.3175 29.9522 5.49137 30.1829C5.66524 30.4137 5.88981 30.6052 6.14932 30.7441C6.40882 30.883 6.69697 30.9658 6.99352 30.9869C7.29008 31.0079 7.58785 30.9666 7.86592 30.8658C8.144 30.765 8.39564 30.6072 8.60318 30.4035C8.81071 30.1998 8.96911 29.9551 9.06725 29.6866H12.0435C12.1408 29.9562 12.2988 30.2021 12.5063 30.407C12.7139 30.6118 12.9659 30.7706 13.2445 30.8722C13.5232 30.9738 13.8218 31.0156 14.1192 30.9948C14.4166 30.974 14.7056 30.891 14.9659 30.7517C15.2261 30.6124 15.4512 30.4202 15.6254 30.1887C15.7995 29.9571 15.9184 29.6918 15.9737 29.4115C16.029 29.1312 16.0193 28.8428 15.9454 28.5664C15.8714 28.2901 15.735 28.0326 15.5457 27.8122L17.5925 24.4193C18.0802 24.5314 18.5942 24.4655 19.0337 24.2343C19.4733 24.0031 19.8069 23.6233 19.9691 23.1693H22.9453C23.0427 23.4389 23.2007 23.6848 23.4082 23.8896C23.6157 24.0945 23.8677 24.2533 24.1464 24.3549C24.425 24.4564 24.7236 24.4983 25.021 24.4775C25.3185 24.4566 25.6075 24.3737 25.8677 24.2344C26.128 24.0951 26.3531 23.9029 26.5272 23.6713C26.7014 23.4398 26.8203 23.1745 26.8756 22.8942C26.9309 22.6139 26.9212 22.3254 26.8472 22.0491C26.7733 21.7727 26.6368 21.5153 26.4475 21.2949L28.4944 17.902C28.775 17.9644 29.0663 17.9694 29.349 17.9165C29.6318 17.8637 29.8997 17.7542 30.1351 17.5953C30.3705 17.4364 30.5681 17.2316 30.7149 16.9945C30.8617 16.7573 30.9544 16.4932 30.987 16.2193C31.0195 15.9455 30.991 15.6682 30.9036 15.4056C30.8161 15.143 30.6715 14.9011 30.4793 14.6958C30.2872 14.4904 30.0518 14.3263 29.7886 14.2141C29.5254 14.102 29.2404 14.0443 28.9522 14.045V14.045ZM24.864 20.5623C24.4426 20.5633 24.0318 20.6891 23.6882 20.9225C23.3446 21.1559 23.085 21.4855 22.9453 21.8658H19.9691C19.8063 21.4185 19.4781 21.0436 19.0464 20.8117C18.6147 20.5798 18.1092 20.5069 17.6252 20.6067L15.5675 17.1968C15.8553 16.8526 16.0102 16.4241 16.0062 15.9835C16.0023 15.5428 15.8396 15.1169 15.5457 14.7775L17.5925 11.3846C18.0802 11.4968 18.5942 11.4308 19.0337 11.1996C19.4733 10.9684 19.8069 10.5886 19.9691 10.1346H22.9453C23.1076 10.5854 23.4384 10.963 23.8741 11.1947C24.3097 11.4264 24.8196 11.4959 25.3056 11.3898L27.3578 14.7893C27.0682 15.129 26.9092 15.5535 26.9072 15.9918C26.9052 16.4302 27.0604 16.856 27.3469 17.1981L25.2892 20.6067C25.1495 20.5777 25.007 20.5629 24.864 20.5623ZM13.9622 27.0797C13.5407 27.0806 13.1299 27.2064 12.7863 27.4398C12.4427 27.6733 12.1832 28.0028 12.0435 28.3831H9.06725C8.90471 27.9356 8.57666 27.5604 8.14491 27.3282C7.71317 27.0961 7.20755 27.023 6.72335 27.1227L4.66563 23.7141C4.95147 23.3722 5.10627 22.947 5.10429 22.5092C5.10231 22.0714 4.94365 21.6475 4.65472 21.3079L6.707 17.9059C7.19283 18.012 7.70251 17.9427 8.13816 17.7112C8.5738 17.4798 8.90468 17.1025 9.06725 16.6519H12.0435C12.2058 17.1028 12.5365 17.4803 12.9722 17.712C13.4079 17.9437 13.9177 18.0132 14.4037 17.9072L16.4573 21.3066C16.1677 21.646 16.0083 22.07 16.0059 22.5081C16.0034 22.9461 16.1579 23.3718 16.4437 23.7141L14.386 27.1227C14.2467 27.0943 14.1046 27.0799 13.9622 27.0797ZM4.65472 8.27324L6.707 4.87119C7.19283 4.9773 7.70251 4.90798 8.13816 4.67653C8.5738 4.44508 8.90468 4.06784 9.06725 3.61726H12.0435C12.2058 4.06808 12.5365 4.44562 12.9722 4.67732C13.4079 4.90903 13.9177 4.97854 14.4037 4.8725L16.456 8.27064C16.1667 8.61028 16.0079 9.03447 16.0059 9.47255C16.0039 9.91062 16.1589 10.3361 16.4451 10.6781L14.3874 14.0867C13.9032 13.9873 13.3977 14.0605 12.966 14.2926C12.5343 14.5248 12.2062 14.8998 12.0435 15.3472H9.06725C8.90446 14.8998 8.57636 14.5248 8.14469 14.2926C7.71302 14.0605 7.20753 13.9873 6.72335 14.0867L4.66563 10.6781C4.95147 10.3362 5.10627 9.91099 5.10429 9.4732C5.10231 9.03541 4.94365 8.61148 4.65472 8.27194V8.27324Z" fill="black"/>
<path d="M28.9522 14.045C28.8037 14.0457 28.6556 14.0619 28.5107 14.0932L26.4584 10.6951C26.6434 10.4737 26.7757 10.2163 26.846 9.94096C26.9163 9.66562 26.9229 9.37892 26.8655 9.10086C26.808 8.82281 26.6879 8.56009 26.5133 8.33102C26.3388 8.10195 26.1142 7.91205 25.8551 7.77457C25.5959 7.63709 25.3086 7.55532 25.013 7.53499C24.7175 7.51465 24.4208 7.55623 24.1438 7.65682C23.8668 7.75741 23.616 7.9146 23.409 8.11742C23.202 8.32023 23.0438 8.5638 22.9453 8.83113H19.9691C19.8068 8.3803 19.476 8.00276 19.0404 7.77106C18.6047 7.53936 18.0949 7.46985 17.6089 7.57589L15.5566 4.17514C15.7421 3.9537 15.8748 3.69619 15.9454 3.42059C16.016 3.145 16.0229 2.85798 15.9655 2.57959C15.9081 2.30121 15.7878 2.03817 15.6131 1.80886C15.4383 1.57956 15.2133 1.38952 14.9538 1.25203C14.6943 1.11454 14.4066 1.03291 14.1107 1.01286C13.8148 0.992801 13.5178 1.0348 13.2407 1.13592C12.9635 1.23704 12.7127 1.39484 12.506 1.59829C12.2992 1.80173 12.1413 2.04592 12.0435 2.31379H9.06725C8.97018 2.04479 8.81274 1.79936 8.60597 1.59475C8.3992 1.39014 8.14811 1.23129 7.87033 1.12937C7.59256 1.02744 7.29482 0.984906 6.99803 1.00474C6.70124 1.02458 6.41259 1.10632 6.15233 1.24421C5.89208 1.3821 5.66653 1.5728 5.49152 1.80294C5.31651 2.03307 5.19629 2.29705 5.13928 2.57636C5.08228 2.85566 5.08987 3.14351 5.16154 3.41971C5.2332 3.6959 5.3672 3.95375 5.55413 4.17514L3.50185 7.57719C3.20163 7.51121 2.8897 7.51098 2.58937 7.57653C2.28904 7.64208 2.00809 7.7717 1.76751 7.95572C1.52692 8.13973 1.33293 8.37338 1.20003 8.6392C1.06712 8.90501 0.998752 9.19612 1.00002 9.49077C1.00128 9.78542 1.07215 10.076 1.20733 10.3407C1.34251 10.6055 1.53851 10.8376 1.78066 11.0197C2.02282 11.2019 2.30488 11.3293 2.60576 11.3925C2.90664 11.4556 3.21856 11.453 3.51821 11.3846L5.56503 14.7775C5.26917 15.1191 5.10636 15.5483 5.10437 15.9918C5.10238 16.4354 5.26134 16.8659 5.55413 17.2098L3.50185 20.6119C3.20163 20.5459 2.8897 20.5457 2.58937 20.6112C2.28904 20.6768 2.00809 20.8064 1.76751 20.9904C1.52692 21.1744 1.33293 21.4081 1.20003 21.6739C1.06712 21.9397 0.998752 22.2308 1.00002 22.5254C1.00128 22.8201 1.07215 23.1107 1.20733 23.3754C1.34251 23.6402 1.53851 23.8723 1.78066 24.0544C2.02282 24.2365 2.30488 24.3639 2.60576 24.4271C2.90664 24.4903 3.21856 24.4876 3.51821 24.4193L5.56503 27.8122C5.37714 28.0327 5.24198 28.2898 5.16905 28.5656C5.09612 28.8413 5.08718 29.129 5.14286 29.4084C5.19854 29.6878 5.3175 29.9522 5.49137 30.1829C5.66524 30.4137 5.88981 30.6052 6.14932 30.7441C6.40882 30.883 6.69697 30.9658 6.99352 30.9869C7.29008 31.0079 7.58785 30.9666 7.86592 30.8658C8.144 30.765 8.39564 30.6072 8.60318 30.4035C8.81071 30.1998 8.96911 29.9551 9.06725 29.6866H12.0435C12.1408 29.9562 12.2988 30.2021 12.5063 30.407C12.7139 30.6118 12.9659 30.7706 13.2445 30.8722C13.5232 30.9738 13.8218 31.0156 14.1192 30.9948C14.4166 30.974 14.7056 30.891 14.9659 30.7517C15.2261 30.6124 15.4512 30.4202 15.6254 30.1887C15.7995 29.9571 15.9184 29.6918 15.9737 29.4115C16.029 29.1312 16.0193 28.8428 15.9454 28.5664C15.8714 28.2901 15.735 28.0326 15.5457 27.8122L17.5925 24.4193C18.0802 24.5314 18.5942 24.4655 19.0337 24.2343C19.4733 24.0031 19.8069 23.6233 19.9691 23.1693H22.9453C23.0427 23.4389 23.2007 23.6848 23.4082 23.8896C23.6157 24.0945 23.8677 24.2533 24.1464 24.3549C24.425 24.4564 24.7236 24.4983 25.021 24.4775C25.3185 24.4566 25.6075 24.3737 25.8677 24.2344C26.128 24.0951 26.3531 23.9029 26.5272 23.6713C26.7014 23.4398 26.8203 23.1745 26.8756 22.8942C26.9309 22.6139 26.9212 22.3254 26.8472 22.0491C26.7733 21.7727 26.6368 21.5153 26.4475 21.2949L28.4944 17.902C28.775 17.9644 29.0663 17.9694 29.349 17.9165C29.6318 17.8637 29.8997 17.7542 30.1351 17.5953C30.3705 17.4364 30.5681 17.2316 30.7149 16.9945C30.8617 16.7573 30.9544 16.4932 30.987 16.2193C31.0195 15.9455 30.991 15.6682 30.9036 15.4056C30.8161 15.143 30.6715 14.9011 30.4793 14.6958C30.2872 14.4904 30.0518 14.3263 29.7886 14.2141C29.5254 14.102 29.2404 14.0443 28.9522 14.045V14.045ZM24.864 20.5623C24.4426 20.5633 24.0318 20.6891 23.6882 20.9225C23.3446 21.1559 23.085 21.4855 22.9453 21.8658H19.9691C19.8063 21.4185 19.4781 21.0436 19.0464 20.8117C18.6147 20.5798 18.1092 20.5069 17.6252 20.6067L15.5675 17.1968C15.8553 16.8526 16.0102 16.4241 16.0062 15.9835C16.0023 15.5428 15.8396 15.1169 15.5457 14.7775L17.5925 11.3846C18.0802 11.4968 18.5942 11.4308 19.0337 11.1996C19.4733 10.9684 19.8069 10.5886 19.9691 10.1346H22.9453C23.1076 10.5854 23.4384 10.963 23.8741 11.1947C24.3097 11.4264 24.8196 11.4959 25.3056 11.3898L27.3578 14.7893C27.0682 15.129 26.9092 15.5535 26.9072 15.9918C26.9052 16.4302 27.0604 16.856 27.3469 17.1981L25.2892 20.6067C25.1495 20.5777 25.007 20.5629 24.864 20.5623ZM13.9622 27.0797C13.5407 27.0806 13.1299 27.2064 12.7863 27.4398C12.4427 27.6733 12.1832 28.0028 12.0435 28.3831H9.06725C8.90471 27.9356 8.57666 27.5604 8.14491 27.3282C7.71317 27.0961 7.20755 27.023 6.72335 27.1227L4.66563 23.7141C4.95147 23.3722 5.10627 22.947 5.10429 22.5092C5.10231 22.0714 4.94365 21.6475 4.65472 21.3079L6.707 17.9059C7.19283 18.012 7.70251 17.9427 8.13816 17.7112C8.5738 17.4798 8.90468 17.1025 9.06725 16.6519H12.0435C12.2058 17.1028 12.5365 17.4803 12.9722 17.712C13.4079 17.9437 13.9177 18.0132 14.4037 17.9072L16.4573 21.3066C16.1677 21.646 16.0083 22.07 16.0059 22.5081C16.0034 22.9461 16.1579 23.3718 16.4437 23.7141L14.386 27.1227C14.2467 27.0943 14.1046 27.0799 13.9622 27.0797ZM4.65472 8.27324L6.707 4.87119C7.19283 4.9773 7.70251 4.90798 8.13816 4.67653C8.5738 4.44508 8.90468 4.06784 9.06725 3.61726H12.0435C12.2058 4.06808 12.5365 4.44562 12.9722 4.67732C13.4079 4.90903 13.9177 4.97854 14.4037 4.8725L16.456 8.27064C16.1667 8.61028 16.0079 9.03447 16.0059 9.47255C16.0039 9.91062 16.1589 10.3361 16.4451 10.6781L14.3874 14.0867C13.9032 13.9873 13.3977 14.0605 12.966 14.2926C12.5343 14.5248 12.2062 14.8998 12.0435 15.3472H9.06725C8.90446 14.8998 8.57636 14.5248 8.14469 14.2926C7.71302 14.0605 7.20753 13.9873 6.72335 14.0867L4.66563 10.6781C4.95147 10.3362 5.10627 9.91099 5.10429 9.4732C5.10231 9.03541 4.94365 8.61148 4.65472 8.27194V8.27324Z" stroke="black" mask="url(#path-1-outside-1_23_18)"/>
</svg>
