<svg width="62" height="62" viewBox="0 0 62 62" fill="none" xmlns="http://www.w3.org/2000/svg">
<mask id="path-1-outside-1_23_18" maskUnits="userSpaceOnUse" x="0" y="0" width="62" height="62" fill="black">
<rect fill="white" width="62" height="62"/>
<path d="M56.9045 27.09C56.6073 27.0914 56.3112 27.1237 56.0214 27.1865L51.9169 20.3902C52.2868 19.9473 52.5513 19.4326 52.6919 18.8819C52.8325 18.3312 52.8458 17.7578 52.7309 17.2017C52.6161 16.6456 52.3757 16.1202 52.0267 15.662C51.6777 15.2039 51.2284 14.8241 50.7101 14.5491C50.1919 14.2742 49.6171 14.1106 49.026 14.07C48.4349 14.0293 47.8416 14.1125 47.2876 14.3136C46.7335 14.5148 46.232 14.8292 45.818 15.2348C45.404 15.6405 45.0876 16.1276 44.8906 16.6623H38.9382C38.6136 15.7606 37.9521 15.0055 37.0807 14.5421C36.2094 14.0787 35.1897 13.9397 34.2177 14.1518L30.1132 7.35028C30.4841 6.9074 30.7495 6.39237 30.8908 5.84119C31.032 5.29 31.0457 4.71596 30.9309 4.15919C30.8161 3.60241 30.5756 3.07633 30.2261 2.61772C29.8767 2.15911 29.4267 1.77903 28.9077 1.50405C28.3887 1.22907 27.8132 1.06582 27.2213 1.02571C26.6295 0.985601 26.0357 1.0696 25.4813 1.27184C24.927 1.47408 24.4255 1.78967 24.0119 2.19657C23.5983 2.60347 23.2826 3.09185 23.0869 3.62758H17.1345C16.9404 3.08957 16.6255 2.59873 16.2119 2.1895C15.7984 1.78027 15.2962 1.46259 14.7407 1.25873C14.1851 1.05488 13.5896 0.969811 12.9961 1.00949C12.4025 1.04917 11.8252 1.21263 11.3047 1.48841C10.7842 1.7642 10.3331 2.14561 9.98305 2.60587C9.63303 3.06614 9.39258 3.5941 9.27856 4.15271C9.16455 4.71132 9.17974 5.28702 9.32308 5.83941C9.46641 6.3918 9.7344 6.90749 10.1083 7.35028L6.0037 14.1544C5.40326 14.0224 4.7794 14.022 4.17874 14.1531C3.57809 14.2842 3.01618 14.5434 2.53501 14.9114C2.05384 15.2795 1.66586 15.7468 1.40005 16.2784C1.13425 16.81 0.997504 17.3922 1.00003 17.9815C1.00257 18.5708 1.14431 19.152 1.41467 19.6815C1.68503 20.211 2.07701 20.6752 2.56133 21.0395C3.04564 21.4037 3.60976 21.6585 4.21152 21.7849C4.81328 21.9113 5.43712 21.9059 6.03641 21.7692L10.1301 28.5551C9.53833 29.2382 9.21271 30.0965 9.20874 30.9836C9.20476 31.8707 9.52268 32.7317 10.1083 33.4196L6.0037 40.2237C5.40326 40.0918 4.7794 40.0913 4.17874 40.2224C3.57809 40.3535 3.01618 40.6128 2.53501 40.9808C2.05384 41.3488 1.66586 41.8161 1.40005 42.3478C1.13425 42.8794 0.997504 43.4616 1.00003 44.0509C1.00257 44.6402 1.14431 45.2213 1.41467 45.7508C1.68503 46.2804 2.07701 46.7446 2.56133 47.1088C3.04564 47.4731 3.60976 47.7279 4.21152 47.8543C4.81328 47.9806 5.43712 47.9753 6.03641 47.8386L10.1301 54.6245C9.75427 55.0654 9.48396 55.5796 9.3381 56.1311C9.19223 56.6826 9.17436 57.258 9.28572 57.8168C9.39708 58.3756 9.63499 58.9043 9.98273 59.3658C10.3305 59.8273 10.7796 60.2104 11.2986 60.4882C11.8176 60.7659 12.3939 60.9317 12.987 60.9737C13.5802 61.0158 14.1757 60.9331 14.7318 60.7316C15.288 60.53 15.7913 60.2144 16.2064 59.807C16.6214 59.3996 16.9382 58.9102 17.1345 58.3732H23.0869C23.2816 58.9125 23.5977 59.4043 24.0127 59.814C24.4277 60.2237 24.9317 60.5413 25.489 60.7444C26.0464 60.9475 26.6435 61.0312 27.2384 60.9896C27.8332 60.948 28.4112 60.782 28.9317 60.5034C29.4522 60.2249 29.9025 59.8405 30.2508 59.3774C30.599 58.9142 30.8368 58.3837 30.9474 57.8231C31.058 57.2625 31.0386 56.6855 30.8907 56.1328C30.7428 55.5802 30.4699 55.0653 30.0914 54.6245L34.185 47.8386C35.1605 48.0629 36.1884 47.9309 37.0675 47.4685C37.9466 47.0061 38.6137 46.2466 38.9382 45.3385H44.8906C45.0853 45.8778 45.4014 46.3696 45.8164 46.7793C46.2315 47.189 46.7354 47.5066 47.2928 47.7097C47.8501 47.9129 48.4472 47.9966 49.0421 47.9549C49.6369 47.9133 50.215 47.7473 50.7354 47.4688C51.2559 47.1902 51.7062 46.8058 52.0545 46.3427C52.4027 45.8796 52.6406 45.349 52.7511 44.7884C52.8617 44.2278 52.8424 43.6508 52.6945 43.0982C52.5465 42.5455 52.2737 42.0306 51.8951 41.5898L55.9887 34.8039C56.55 34.9288 57.1325 34.9388 57.6981 34.833C58.2636 34.7273 58.7994 34.5084 59.2702 34.1905C59.741 33.8727 60.1362 33.4632 60.4299 32.989C60.7235 32.5147 60.9089 31.9864 60.9739 31.4387C61.0389 30.891 60.9821 30.3364 60.8071 29.8112C60.6321 29.286 60.343 28.8022 59.9587 28.3915C59.5743 27.9808 59.1035 27.6525 58.5771 27.4282C58.0508 27.2039 57.4807 27.0886 56.9045 27.09V27.09ZM48.7281 40.1247C47.8852 40.1265 47.0636 40.3782 46.3764 40.845C45.6892 41.3119 45.1701 41.971 44.8906 42.7316H38.9382C38.6126 41.837 37.9563 41.0872 37.0929 40.6234C36.2294 40.1596 35.2185 40.0137 34.2504 40.2133L30.135 33.3936C30.7105 32.7053 31.0204 31.8483 31.0125 30.9669C31.0045 30.0856 30.6792 29.2338 30.0914 28.5551L34.185 21.7692C35.1605 21.9935 36.1884 21.8616 37.0675 21.3992C37.9466 20.9368 38.6137 20.1772 38.9382 19.2692H44.8906C45.2152 20.1708 45.8768 20.9259 46.7481 21.3893C47.6195 21.8527 48.6391 21.9918 49.6111 21.7797L53.7157 28.5786C53.1365 29.258 52.8183 30.107 52.8143 30.9837C52.8104 31.8604 53.1208 32.7119 53.6939 33.3962L49.5784 40.2133C49.299 40.1555 49.014 40.1258 48.7281 40.1247ZM26.9244 53.1594C26.0815 53.1612 25.2599 53.4128 24.5727 53.8797C23.8854 54.3465 23.3664 55.0056 23.0869 55.7663H17.1345C16.8094 54.8712 16.1533 54.1208 15.2898 53.6565C14.4263 53.1921 13.4151 53.0459 12.4467 53.2454L8.33125 46.4282C8.90293 45.7444 9.21255 44.8939 9.20858 44.0184C9.20461 43.1428 8.8873 42.2949 8.30945 41.6158L12.414 34.8117C13.3857 35.024 14.405 34.8853 15.2763 34.4224C16.1476 33.9595 16.8094 33.205 17.1345 32.3039H23.0869C23.4115 33.2055 24.0731 33.9606 24.9444 34.424C25.8158 34.8874 26.8354 35.0264 27.8074 34.8144L31.9147 41.6132C31.3354 42.2919 31.0167 43.14 31.0117 44.0161C31.0068 44.8923 31.3158 45.7436 31.8874 46.4282L27.772 53.2454C27.4933 53.1886 27.2093 53.1598 26.9244 53.1594ZM8.30945 15.5465L12.414 8.74239C13.3857 8.9546 14.405 8.81595 15.2763 8.35306C16.1476 7.89017 16.8094 7.13568 17.1345 6.23451H23.0869C23.4115 7.13616 24.0731 7.89125 24.9444 8.35465C25.8158 8.81805 26.8354 8.95707 27.8074 8.74499L31.912 15.5413C31.3334 16.2206 31.0157 17.0689 31.0117 17.9451C31.0078 18.8212 31.3178 19.6722 31.8902 20.3563L27.7747 27.1734C26.8064 26.9745 25.7954 27.121 24.932 27.5853C24.0687 28.0496 23.4125 28.7996 23.0869 29.6943H17.1345C16.8089 28.7996 16.1527 28.0496 15.2894 27.5853C14.426 27.121 13.4151 26.9745 12.4467 27.1734L8.33125 20.3563C8.90293 19.6724 9.21255 18.822 9.20858 17.9464C9.20461 17.0708 8.8873 16.223 8.30945 15.5439V15.5465Z"/>
</mask>
<path d="M56.9045 27.09C56.6073 27.0914 56.3112 27.1237 56.0214 27.1865L51.9169 20.3902C52.2868 19.9473 52.5513 19.4326 52.6919 18.8819C52.8325 18.3312 52.8458 17.7578 52.7309 17.2017C52.6161 16.6456 52.3757 16.1202 52.0267 15.662C51.6777 15.2039 51.2284 14.8241 50.7101 14.5491C50.1919 14.2742 49.6171 14.1106 49.026 14.07C48.4349 14.0293 47.8416 14.1125 47.2876 14.3136C46.7335 14.5148 46.232 14.8292 45.818 15.2348C45.404 15.6405 45.0876 16.1276 44.8906 16.6623H38.9382C38.6136 15.7606 37.9521 15.0055 37.0807 14.5421C36.2094 14.0787 35.1897 13.9397 34.2177 14.1518L30.1132 7.35028C30.4841 6.9074 30.7495 6.39237 30.8908 5.84119C31.032 5.29 31.0457 4.71596 30.9309 4.15919C30.8161 3.60241 30.5756 3.07633 30.2261 2.61772C29.8767 2.15911 29.4267 1.77903 28.9077 1.50405C28.3887 1.22907 27.8132 1.06582 27.2213 1.02571C26.6295 0.985601 26.0357 1.0696 25.4813 1.27184C24.927 1.47408 24.4255 1.78967 24.0119 2.19657C23.5983 2.60347 23.2826 3.09185 23.0869 3.62758H17.1345C16.9404 3.08957 16.6255 2.59873 16.2119 2.1895C15.7984 1.78027 15.2962 1.46259 14.7407 1.25873C14.1851 1.05488 13.5896 0.969811 12.9961 1.00949C12.4025 1.04917 11.8252 1.21263 11.3047 1.48841C10.7842 1.7642 10.3331 2.14561 9.98305 2.60587C9.63303 3.06614 9.39258 3.5941 9.27856 4.15271C9.16455 4.71132 9.17974 5.28702 9.32308 5.83941C9.46641 6.3918 9.7344 6.90749 10.1083 7.35028L6.0037 14.1544C5.40326 14.0224 4.7794 14.022 4.17874 14.1531C3.57809 14.2842 3.01618 14.5434 2.53501 14.9114C2.05384 15.2795 1.66586 15.7468 1.40005 16.2784C1.13425 16.81 0.997504 17.3922 1.00003 17.9815C1.00257 18.5708 1.14431 19.152 1.41467 19.6815C1.68503 20.211 2.07701 20.6752 2.56133 21.0395C3.04564 21.4037 3.60976 21.6585 4.21152 21.7849C4.81328 21.9113 5.43712 21.9059 6.03641 21.7692L10.1301 28.5551C9.53833 29.2382 9.21271 30.0965 9.20874 30.9836C9.20476 31.8707 9.52268 32.7317 10.1083 33.4196L6.0037 40.2237C5.40326 40.0918 4.7794 40.0913 4.17874 40.2224C3.57809 40.3535 3.01618 40.6128 2.53501 40.9808C2.05384 41.3488 1.66586 41.8161 1.40005 42.3478C1.13425 42.8794 0.997504 43.4616 1.00003 44.0509C1.00257 44.6402 1.14431 45.2213 1.41467 45.7508C1.68503 46.2804 2.07701 46.7446 2.56133 47.1088C3.04564 47.4731 3.60976 47.7279 4.21152 47.8543C4.81328 47.9806 5.43712 47.9753 6.03641 47.8386L10.1301 54.6245C9.75427 55.0654 9.48396 55.5796 9.3381 56.1311C9.19223 56.6826 9.17436 57.258 9.28572 57.8168C9.39708 58.3756 9.63499 58.9043 9.98273 59.3658C10.3305 59.8273 10.7796 60.2104 11.2986 60.4882C11.8176 60.7659 12.3939 60.9317 12.987 60.9737C13.5802 61.0158 14.1757 60.9331 14.7318 60.7316C15.288 60.53 15.7913 60.2144 16.2064 59.807C16.6214 59.3996 16.9382 58.9102 17.1345 58.3732H23.0869C23.2816 58.9125 23.5977 59.4043 24.0127 59.814C24.4277 60.2237 24.9317 60.5413 25.489 60.7444C26.0464 60.9475 26.6435 61.0312 27.2384 60.9896C27.8332 60.948 28.4112 60.782 28.9317 60.5034C29.4522 60.2249 29.9025 59.8405 30.2508 59.3774C30.599 58.9142 30.8368 58.3837 30.9474 57.8231C31.058 57.2625 31.0386 56.6855 30.8907 56.1328C30.7428 55.5802 30.4699 55.0653 30.0914 54.6245L34.185 47.8386C35.1605 48.0629 36.1884 47.9309 37.0675 47.4685C37.9466 47.0061 38.6137 46.2466 38.9382 45.3385H44.8906C45.0853 45.8778 45.4014 46.3696 45.8164 46.7793C46.2315 47.189 46.7354 47.5066 47.2928 47.7097C47.8501 47.9129 48.4472 47.9966 49.0421 47.9549C49.6369 47.9133 50.215 47.7473 50.7354 47.4688C51.2559 47.1902 51.7062 46.8058 52.0545 46.3427C52.4027 45.8796 52.6406 45.349 52.7511 44.7884C52.8617 44.2278 52.8424 43.6508 52.6945 43.0982C52.5465 42.5455 52.2737 42.0306 51.8951 41.5898L55.9887 34.8039C56.55 34.9288 57.1325 34.9388 57.6981 34.833C58.2636 34.7273 58.7994 34.5084 59.2702 34.1905C59.741 33.8727 60.1362 33.4632 60.4299 32.989C60.7235 32.5147 60.9089 31.9864 60.9739 31.4387C61.0389 30.891 60.9821 30.3364 60.8071 29.8112C60.6321 29.286 60.343 28.8022 59.9587 28.3915C59.5743 27.9808 59.1035 27.6525 58.5771 27.4282C58.0508 27.2039 57.4807 27.0886 56.9045 27.09V27.09ZM48.7281 40.1247C47.8852 40.1265 47.0636 40.3782 46.3764 40.845C45.6892 41.3119 45.1701 41.971 44.8906 42.7316H38.9382C38.6126 41.837 37.9563 41.0872 37.0929 40.6234C36.2294 40.1596 35.2185 40.0137 34.2504 40.2133L30.135 33.3936C30.7105 32.7053 31.0204 31.8483 31.0125 30.9669C31.0045 30.0856 30.6792 29.2338 30.0914 28.5551L34.185 21.7692C35.1605 21.9935 36.1884 21.8616 37.0675 21.3992C37.9466 20.9368 38.6137 20.1772 38.9382 19.2692H44.8906C45.2152 20.1708 45.8768 20.9259 46.7481 21.3893C47.6195 21.8527 48.6391 21.9918 49.6111 21.7797L53.7157 28.5786C53.1365 29.258 52.8183 30.107 52.8143 30.9837C52.8104 31.8604 53.1208 32.7119 53.6939 33.3962L49.5784 40.2133C49.299 40.1555 49.014 40.1258 48.7281 40.1247ZM26.9244 53.1594C26.0815 53.1612 25.2599 53.4128 24.5727 53.8797C23.8854 54.3465 23.3664 55.0056 23.0869 55.7663H17.1345C16.8094 54.8712 16.1533 54.1208 15.2898 53.6565C14.4263 53.1921 13.4151 53.0459 12.4467 53.2454L8.33125 46.4282C8.90293 45.7444 9.21255 44.8939 9.20858 44.0184C9.20461 43.1428 8.8873 42.2949 8.30945 41.6158L12.414 34.8117C13.3857 35.024 14.405 34.8853 15.2763 34.4224C16.1476 33.9595 16.8094 33.205 17.1345 32.3039H23.0869C23.4115 33.2055 24.0731 33.9606 24.9444 34.424C25.8158 34.8874 26.8354 35.0264 27.8074 34.8144L31.9147 41.6132C31.3354 42.2919 31.0167 43.14 31.0117 44.0161C31.0068 44.8923 31.3158 45.7436 31.8874 46.4282L27.772 53.2454C27.4933 53.1886 27.2093 53.1598 26.9244 53.1594ZM8.30945 15.5465L12.414 8.74239C13.3857 8.9546 14.405 8.81595 15.2763 8.35306C16.1476 7.89017 16.8094 7.13568 17.1345 6.23451H23.0869C23.4115 7.13616 24.0731 7.89125 24.9444 8.35465C25.8158 8.81805 26.8354 8.95707 27.8074 8.74499L31.912 15.5413C31.3334 16.2206 31.0157 17.0689 31.0117 17.9451C31.0078 18.8212 31.3178 19.6722 31.8902 20.3563L27.7747 27.1734C26.8064 26.9745 25.7954 27.121 24.932 27.5853C24.0687 28.0496 23.4125 28.7996 23.0869 29.6943H17.1345C16.8089 28.7996 16.1527 28.0496 15.2894 27.5853C14.426 27.121 13.4151 26.9745 12.4467 27.1734L8.33125 20.3563C8.90293 19.6724 9.21255 18.822 9.20858 17.9464C9.20461 17.0708 8.8873 16.223 8.30945 15.5439V15.5465Z" fill="white"/>
<path d="M56.9045 27.09C56.6073 27.0914 56.3112 27.1237 56.0214 27.1865L51.9169 20.3902C52.2868 19.9473 52.5513 19.4326 52.6919 18.8819C52.8325 18.3312 52.8458 17.7578 52.7309 17.2017C52.6161 16.6456 52.3757 16.1202 52.0267 15.662C51.6777 15.2039 51.2284 14.8241 50.7101 14.5491C50.1919 14.2742 49.6171 14.1106 49.026 14.07C48.4349 14.0293 47.8416 14.1125 47.2876 14.3136C46.7335 14.5148 46.232 14.8292 45.818 15.2348C45.404 15.6405 45.0876 16.1276 44.8906 16.6623H38.9382C38.6136 15.7606 37.9521 15.0055 37.0807 14.5421C36.2094 14.0787 35.1897 13.9397 34.2177 14.1518L30.1132 7.35028C30.4841 6.9074 30.7495 6.39237 30.8908 5.84119C31.032 5.29 31.0457 4.71596 30.9309 4.15919C30.8161 3.60241 30.5756 3.07633 30.2261 2.61772C29.8767 2.15911 29.4267 1.77903 28.9077 1.50405C28.3887 1.22907 27.8132 1.06582 27.2213 1.02571C26.6295 0.985601 26.0357 1.0696 25.4813 1.27184C24.927 1.47408 24.4255 1.78967 24.0119 2.19657C23.5983 2.60347 23.2826 3.09185 23.0869 3.62758H17.1345C16.9404 3.08957 16.6255 2.59873 16.2119 2.1895C15.7984 1.78027 15.2962 1.46259 14.7407 1.25873C14.1851 1.05488 13.5896 0.969811 12.9961 1.00949C12.4025 1.04917 11.8252 1.21263 11.3047 1.48841C10.7842 1.7642 10.3331 2.14561 9.98305 2.60587C9.63303 3.06614 9.39258 3.5941 9.27856 4.15271C9.16455 4.71132 9.17974 5.28702 9.32308 5.83941C9.46641 6.3918 9.7344 6.90749 10.1083 7.35028L6.0037 14.1544C5.40326 14.0224 4.7794 14.022 4.17874 14.1531C3.57809 14.2842 3.01618 14.5434 2.53501 14.9114C2.05384 15.2795 1.66586 15.7468 1.40005 16.2784C1.13425 16.81 0.997504 17.3922 1.00003 17.9815C1.00257 18.5708 1.14431 19.152 1.41467 19.6815C1.68503 20.211 2.07701 20.6752 2.56133 21.0395C3.04564 21.4037 3.60976 21.6585 4.21152 21.7849C4.81328 21.9113 5.43712 21.9059 6.03641 21.7692L10.1301 28.5551C9.53833 29.2382 9.21271 30.0965 9.20874 30.9836C9.20476 31.8707 9.52268 32.7317 10.1083 33.4196L6.0037 40.2237C5.40326 40.0918 4.7794 40.0913 4.17874 40.2224C3.57809 40.3535 3.01618 40.6128 2.53501 40.9808C2.05384 41.3488 1.66586 41.8161 1.40005 42.3478C1.13425 42.8794 0.997504 43.4616 1.00003 44.0509C1.00257 44.6402 1.14431 45.2213 1.41467 45.7508C1.68503 46.2804 2.07701 46.7446 2.56133 47.1088C3.04564 47.4731 3.60976 47.7279 4.21152 47.8543C4.81328 47.9806 5.43712 47.9753 6.03641 47.8386L10.1301 54.6245C9.75427 55.0654 9.48396 55.5796 9.3381 56.1311C9.19223 56.6826 9.17436 57.258 9.28572 57.8168C9.39708 58.3756 9.63499 58.9043 9.98273 59.3658C10.3305 59.8273 10.7796 60.2104 11.2986 60.4882C11.8176 60.7659 12.3939 60.9317 12.987 60.9737C13.5802 61.0158 14.1757 60.9331 14.7318 60.7316C15.288 60.53 15.7913 60.2144 16.2064 59.807C16.6214 59.3996 16.9382 58.9102 17.1345 58.3732H23.0869C23.2816 58.9125 23.5977 59.4043 24.0127 59.814C24.4277 60.2237 24.9317 60.5413 25.489 60.7444C26.0464 60.9475 26.6435 61.0312 27.2384 60.9896C27.8332 60.948 28.4112 60.782 28.9317 60.5034C29.4522 60.2249 29.9025 59.8405 30.2508 59.3774C30.599 58.9142 30.8368 58.3837 30.9474 57.8231C31.058 57.2625 31.0386 56.6855 30.8907 56.1328C30.7428 55.5802 30.4699 55.0653 30.0914 54.6245L34.185 47.8386C35.1605 48.0629 36.1884 47.9309 37.0675 47.4685C37.9466 47.0061 38.6137 46.2466 38.9382 45.3385H44.8906C45.0853 45.8778 45.4014 46.3696 45.8164 46.7793C46.2315 47.189 46.7354 47.5066 47.2928 47.7097C47.8501 47.9129 48.4472 47.9966 49.0421 47.9549C49.6369 47.9133 50.215 47.7473 50.7354 47.4688C51.2559 47.1902 51.7062 46.8058 52.0545 46.3427C52.4027 45.8796 52.6406 45.349 52.7511 44.7884C52.8617 44.2278 52.8424 43.6508 52.6945 43.0982C52.5465 42.5455 52.2737 42.0306 51.8951 41.5898L55.9887 34.8039C56.55 34.9288 57.1325 34.9388 57.6981 34.833C58.2636 34.7273 58.7994 34.5084 59.2702 34.1905C59.741 33.8727 60.1362 33.4632 60.4299 32.989C60.7235 32.5147 60.9089 31.9864 60.9739 31.4387C61.0389 30.891 60.9821 30.3364 60.8071 29.8112C60.6321 29.286 60.343 28.8022 59.9587 28.3915C59.5743 27.9808 59.1035 27.6525 58.5771 27.4282C58.0508 27.2039 57.4807 27.0886 56.9045 27.09V27.09ZM48.7281 40.1247C47.8852 40.1265 47.0636 40.3782 46.3764 40.845C45.6892 41.3119 45.1701 41.971 44.8906 42.7316H38.9382C38.6126 41.837 37.9563 41.0872 37.0929 40.6234C36.2294 40.1596 35.2185 40.0137 34.2504 40.2133L30.135 33.3936C30.7105 32.7053 31.0204 31.8483 31.0125 30.9669C31.0045 30.0856 30.6792 29.2338 30.0914 28.5551L34.185 21.7692C35.1605 21.9935 36.1884 21.8616 37.0675 21.3992C37.9466 20.9368 38.6137 20.1772 38.9382 19.2692H44.8906C45.2152 20.1708 45.8768 20.9259 46.7481 21.3893C47.6195 21.8527 48.6391 21.9918 49.6111 21.7797L53.7157 28.5786C53.1365 29.258 52.8183 30.107 52.8143 30.9837C52.8104 31.8604 53.1208 32.7119 53.6939 33.3962L49.5784 40.2133C49.299 40.1555 49.014 40.1258 48.7281 40.1247ZM26.9244 53.1594C26.0815 53.1612 25.2599 53.4128 24.5727 53.8797C23.8854 54.3465 23.3664 55.0056 23.0869 55.7663H17.1345C16.8094 54.8712 16.1533 54.1208 15.2898 53.6565C14.4263 53.1921 13.4151 53.0459 12.4467 53.2454L8.33125 46.4282C8.90293 45.7444 9.21255 44.8939 9.20858 44.0184C9.20461 43.1428 8.8873 42.2949 8.30945 41.6158L12.414 34.8117C13.3857 35.024 14.405 34.8853 15.2763 34.4224C16.1476 33.9595 16.8094 33.205 17.1345 32.3039H23.0869C23.4115 33.2055 24.0731 33.9606 24.9444 34.424C25.8158 34.8874 26.8354 35.0264 27.8074 34.8144L31.9147 41.6132C31.3354 42.2919 31.0167 43.14 31.0117 44.0161C31.0068 44.8923 31.3158 45.7436 31.8874 46.4282L27.772 53.2454C27.4933 53.1886 27.2093 53.1598 26.9244 53.1594ZM8.30945 15.5465L12.414 8.74239C13.3857 8.9546 14.405 8.81595 15.2763 8.35306C16.1476 7.89017 16.8094 7.13568 17.1345 6.23451H23.0869C23.4115 7.13616 24.0731 7.89125 24.9444 8.35465C25.8158 8.81805 26.8354 8.95707 27.8074 8.74499L31.912 15.5413C31.3334 16.2206 31.0157 17.0689 31.0117 17.9451C31.0078 18.8212 31.3178 19.6722 31.8902 20.3563L27.7747 27.1734C26.8064 26.9745 25.7954 27.121 24.932 27.5853C24.0687 28.0496 23.4125 28.7996 23.0869 29.6943H17.1345C16.8089 28.7996 16.1527 28.0496 15.2894 27.5853C14.426 27.121 13.4151 26.9745 12.4467 27.1734L8.33125 20.3563C8.90293 19.6724 9.21255 18.822 9.20858 17.9464C9.20461 17.0708 8.8873 16.223 8.30945 15.5439V15.5465Z" stroke="white" mask="url(#path-1-outside-1_23_18)"/>
</svg>
