<svg width="30" height="30" viewBox="0 0 30 30" fill="none" xmlns="http://www.w3.org/2000/svg">
<path d="M26.3842 5.35715H8.32031C6.32812 5.35715 4.6875 7.19933 4.6875 9.46407V25.8931C4.6875 28.1578 6.32812 30 8.32031 30H26.3672C28.3594 30 30 28.2469 30 25.9821V9.46407C30 7.19933 28.3781 5.35715 26.3842 5.35715V5.35715ZM21.8637 9.46474C22.396 9.46844 22.9155 9.65224 23.3566 9.99296C23.7977 10.3337 24.1406 10.816 24.3421 11.3792C24.5436 11.9424 24.5946 12.5612 24.4888 13.1575C24.3829 13.7537 24.1249 14.3009 23.7473 14.7298C23.3698 15.1587 22.8895 15.4502 22.3671 15.5676C21.8447 15.6849 21.3036 15.6228 20.8121 15.3891C20.3205 15.1554 19.9005 14.7606 19.6051 14.2545C19.3096 13.7483 19.152 13.1535 19.152 12.5451C19.1547 11.7258 19.4418 10.9412 19.9502 10.3636C20.4586 9.78598 21.1468 9.46246 21.8637 9.46407V9.46474ZM8.29629 27.9469C7.3002 27.9469 6.54668 27.0261 6.54668 25.8938V21.5525L11.8471 16.1424C12.3652 15.6215 13.037 15.3445 13.7268 15.3672C14.4166 15.39 15.0732 15.7108 15.5643 16.265L19.2346 20.4241L12.6135 27.9462L8.29629 27.9469ZM28.125 25.8931C28.1249 26.163 28.0783 26.4302 27.9878 26.6795C27.8973 26.9287 27.7647 27.1552 27.5976 27.3459C27.4305 27.5365 27.2321 27.6877 27.0139 27.7907C26.7956 27.8937 26.5617 27.9466 26.3256 27.9462H15.1758L22.0359 20.1563C22.5228 19.6869 23.1387 19.4286 23.7756 19.4266C24.4126 19.4246 25.0297 19.6792 25.5187 20.1455L28.125 22.6734V25.8931Z" fill="black"/>
<path d="M22.5 0H3.75C2.75544 0 1.80161 0.451529 1.09835 1.25526C0.395088 2.05898 0 3.14907 0 4.28571L0 21.4286C0.00068585 22.3787 0.277171 23.3018 0.786134 24.0531C1.2951 24.8045 2.00777 25.3416 2.8125 25.5804V8.03571C2.8125 6.75699 3.25697 5.53064 4.04814 4.62645C4.83931 3.72226 5.91237 3.21429 7.03125 3.21429H26.1328C25.9239 2.2946 25.4539 1.48011 24.7965 0.898439C24.1391 0.316767 23.3314 0.000783828 22.5 0Z" fill="black"/>
</svg>
