<svg width="60" height="60" viewBox="0 0 60 60" fill="none" xmlns="http://www.w3.org/2000/svg">
<path d="M52.7684 10.7143H16.6406C12.6562 10.7143 9.375 14.3987 9.375 18.9281V51.7862C9.375 56.3156 12.6562 60 16.6406 60H52.7344C56.7188 60 60 56.4938 60 51.9643V18.9281C60 14.3987 56.7563 10.7143 52.7684 10.7143V10.7143ZM43.7273 18.9295C44.7921 18.9369 45.8311 19.3045 46.7132 19.9859C47.5954 20.6674 48.2812 21.6321 48.6842 22.7585C49.0872 23.8848 49.1892 25.1223 48.9775 26.3149C48.7659 27.5075 48.2499 28.6017 47.4947 29.4596C46.7395 30.3174 45.779 30.9004 44.7342 31.1351C43.6894 31.3698 42.6072 31.2456 41.6241 30.7783C40.641 30.3109 39.8011 29.5213 39.2102 28.509C38.6193 27.4967 38.3039 26.3071 38.3039 25.0902C38.3095 23.4516 38.8837 21.8825 39.9005 20.7272C40.9173 19.572 42.2936 18.9249 43.7273 18.9281V18.9295ZM16.5926 55.8938C14.6004 55.8938 13.0934 54.0522 13.0934 51.7875V43.1049L23.6941 32.2848C24.7305 31.243 26.0739 30.689 27.4536 30.7345C28.8332 30.7799 30.1464 31.4216 31.1285 32.5299L38.4691 40.8482L25.227 55.8924L16.5926 55.8938ZM56.25 51.7862C56.2498 52.3259 56.1566 52.8604 55.9756 53.3589C55.7946 53.8575 55.5295 54.3103 55.1952 54.6917C54.861 55.0731 54.4643 55.3754 54.0278 55.5814C53.5912 55.7874 53.1235 55.8931 52.6512 55.8924H30.3516L44.0719 40.3125C45.0455 39.3738 46.2774 38.8571 47.5513 38.8532C48.8251 38.8493 50.0594 39.3584 51.0375 40.2911L56.25 45.3469V51.7862Z" fill="white"/>
<path d="M45 0H7.5C5.51088 0 3.60322 0.903059 2.1967 2.51051C0.790176 4.11797 0 6.29814 0 8.57143L0 42.8571C0.0013717 44.7575 0.554343 46.6036 1.57227 48.1063C2.59019 49.6089 4.01555 50.6832 5.625 51.1607V16.0714C5.625 13.514 6.51395 11.0613 8.09629 9.2529C9.67862 7.44451 11.8247 6.42857 14.0625 6.42857H52.2656C51.8478 4.5892 50.9078 2.96022 49.593 1.79688C48.2782 0.633535 46.6628 0.00156766 45 0Z" fill="white"/>
</svg>
