<svg width="32" height="32" viewBox="0 0 32 32" fill="none" xmlns="http://www.w3.org/2000/svg">
<path d="M22.6533 27.628L21.751 19.942C21.6231 18.8533 21.1258 17.8519 20.3526 17.1259C19.5794 16.4 18.5836 15.9996 17.5524 16H14.445C13.4143 16.0003 12.4191 16.401 11.6465 17.1269C10.8739 17.8528 10.377 18.8538 10.2492 19.942L9.34549 27.628C9.29589 28.0503 9.3313 28.4789 9.44937 28.8855C9.56743 29.2921 9.76545 29.6673 10.0303 29.9863C10.2951 30.3052 10.6207 30.5605 10.9854 30.7353C11.3501 30.9101 11.7455 31.0003 12.1455 31H19.8547C20.2546 31.0001 20.6499 30.9097 21.0144 30.7348C21.3789 30.56 21.7043 30.3046 21.969 29.9857C22.2336 29.6668 22.4315 29.2917 22.5495 28.8852C22.6675 28.4787 22.7029 28.0501 22.6533 27.628V27.628Z" stroke="black" stroke-width="2" stroke-linecap="round" stroke-linejoin="round"/>
<path d="M15.9999 10C18.3358 10 20.2295 7.98528 20.2295 5.5C20.2295 3.01472 18.3358 1 15.9999 1C13.6639 1 11.7703 3.01472 11.7703 5.5C11.7703 7.98528 13.6639 10 15.9999 10Z" stroke="black" stroke-width="2"/>
<path d="M4.72087 14.5C6.27818 14.5 7.54062 13.1569 7.54062 11.5C7.54062 9.84315 6.27818 8.5 4.72087 8.5C3.16357 8.5 1.90112 9.84315 1.90112 11.5C1.90112 13.1569 3.16357 14.5 4.72087 14.5Z" stroke="black" stroke-width="2"/>
<path d="M27.279 14.5C28.8363 14.5 30.0987 13.1569 30.0987 11.5C30.0987 9.84315 28.8363 8.5 27.279 8.5C25.7217 8.5 24.4592 9.84315 24.4592 11.5C24.4592 13.1569 25.7217 14.5 27.279 14.5Z" stroke="black" stroke-width="2"/>
<path d="M4.72101 19H4.28958C3.6221 18.9999 2.97622 19.2518 2.46686 19.7107C1.95751 20.1697 1.6177 20.806 1.5079 21.5065L1.03841 24.5065C0.971039 24.9363 0.992481 25.3766 1.10125 25.7967C1.21002 26.2168 1.4035 26.6067 1.66824 26.9391C1.93298 27.2716 2.26263 27.5388 2.63424 27.722C3.00586 27.9052 3.41052 28.0001 3.8201 28H8.95063M27.279 19H27.7104C28.3779 18.9999 29.0238 19.2518 29.5331 19.7107C30.0425 20.1697 30.3823 20.806 30.4921 21.5065L30.9616 24.5065C31.029 24.9363 31.0075 25.3766 30.8987 25.7967C30.79 26.2168 30.5965 26.6067 30.3318 26.9391C30.067 27.2716 29.7374 27.5388 29.3658 27.722C28.9941 27.9052 28.5895 28.0001 28.1799 28H23.0494" stroke="black" stroke-width="2" stroke-linecap="round" stroke-linejoin="round"/>
</svg>
