<svg width="62" height="62" viewBox="0 0 62 62" fill="none" xmlns="http://www.w3.org/2000/svg">
<path d="M44.3066 54.256L42.502 38.884C42.2462 36.7067 41.2516 34.7037 39.7052 33.2519C38.1588 31.8 36.1672 30.9992 34.1047 31H27.89C25.8286 31.0006 23.8383 31.8021 22.293 33.2538C20.7478 34.7056 19.7541 36.7077 19.4984 38.884L17.691 54.256C17.5918 55.1005 17.6626 55.9579 17.8987 56.771C18.1349 57.5842 18.5309 58.3347 19.0606 58.9725C19.5902 59.6104 20.2413 60.121 20.9707 60.4706C21.7001 60.8201 22.491 61.0006 23.291 61H38.7094C39.5091 61.0002 40.2997 60.8194 41.0288 60.4697C41.7578 60.1199 42.4086 59.6092 42.938 58.9714C43.4673 58.3336 43.8631 57.5833 44.099 56.7703C44.335 55.9574 44.4058 55.1003 44.3066 54.256V54.256Z" stroke="white" stroke-width="2" stroke-linecap="round" stroke-linejoin="round"/>
<path d="M30.9998 19C35.6717 19 39.459 14.9706 39.459 10C39.459 5.02944 35.6717 1 30.9998 1C26.3279 1 22.5405 5.02944 22.5405 10C22.5405 14.9706 26.3279 19 30.9998 19Z" stroke="white" stroke-width="2"/>
<path d="M8.44174 28C11.5564 28 14.0812 25.3137 14.0812 22C14.0812 18.6863 11.5564 16 8.44174 16C5.32713 16 2.80225 18.6863 2.80225 22C2.80225 25.3137 5.32713 28 8.44174 28Z" stroke="white" stroke-width="2"/>
<path d="M53.558 28C56.6726 28 59.1975 25.3137 59.1975 22C59.1975 18.6863 56.6726 16 53.558 16C50.4433 16 47.9185 18.6863 47.9185 22C47.9185 25.3137 50.4433 28 53.558 28Z" stroke="white" stroke-width="2"/>
<path d="M8.44201 37H7.57917C6.24419 36.9998 4.95244 37.5035 3.93373 38.4214C2.91502 39.3394 2.23541 40.612 2.0158 42.013L1.07683 48.013C0.942077 48.8726 0.984963 49.7532 1.2025 50.5934C1.42004 51.4336 1.807 52.2133 2.33649 52.8783C2.86597 53.5433 3.52525 54.0775 4.26848 54.4439C5.01171 54.8104 5.82105 55.0001 6.64019 55H16.9013M53.558 37H54.4208C55.7558 36.9998 57.0476 37.5035 58.0663 38.4214C59.085 39.3394 59.7646 40.612 59.9842 42.013L60.9232 48.013C61.0579 48.8726 61.015 49.7532 60.7975 50.5934C60.58 51.4336 60.193 52.2133 59.6635 52.8783C59.134 53.5433 58.4747 54.0775 57.7315 54.4439C56.9883 54.8104 56.179 55.0001 55.3598 55H45.0987" stroke="white" stroke-width="2" stroke-linecap="round" stroke-linejoin="round"/>
</svg>
