<svg width="218" height="150" viewBox="0 0 218 150" fill="none" xmlns="http://www.w3.org/2000/svg">
<path d="M19.2708 136.208H25.0833V146.5C23.651 147.5 21.9219 148.323 19.8958 148.958C17.8802 149.599 15.9479 149.917 14.1042 149.917C10.0885 149.917 6.73437 148.635 4.04167 146.063C1.34375 143.479 0 140.271 0 136.438C0 132.604 1.38021 129.411 4.14583 126.854C6.92187 124.286 10.3958 123 14.5625 123C16.5208 123 18.4635 123.354 20.3958 124.063C22.3385 124.771 23.9896 125.724 25.3542 126.917L21.5833 131.479C20.625 130.604 19.5104 129.911 18.25 129.396C17 128.885 15.7552 128.625 14.5208 128.625C12.3646 128.625 10.5521 129.375 9.08333 130.875C7.60937 132.365 6.875 134.219 6.875 136.438C6.875 138.677 7.60937 140.552 9.08333 142.063C10.5677 143.563 12.4062 144.313 14.6042 144.313C16.0052 144.313 17.5625 143.885 19.2708 143.021V136.208Z" fill="black"/>
<path d="M54.0761 149.625L50.1386 142.188H44.8678V149.625H38.1594V123.229H49.9511C53.4511 123.229 56.149 124.031 58.0553 125.625C59.9719 127.224 60.9303 129.495 60.9303 132.438C60.9303 136.51 59.3313 139.333 56.1386 140.917L61.6803 149.625H54.0761ZM44.8678 136.917H49.9511C51.4094 136.917 52.5396 136.557 53.3469 135.833C54.149 135.099 54.5553 134.042 54.5553 132.667C54.5553 131.307 54.149 130.271 53.3469 129.563C52.5396 128.854 51.4094 128.5 49.9511 128.5H44.8678V136.917Z" fill="black"/>
<path d="M86.3739 123C90.4676 123 93.8739 124.281 96.5822 126.833C99.3009 129.391 100.666 132.578 100.666 136.396C100.666 140.245 99.2957 143.458 96.5614 146.042C93.8374 148.625 90.4364 149.917 86.353 149.917C82.2801 149.917 78.8843 148.635 76.1655 146.063C73.4572 143.479 72.103 140.26 72.103 136.396C72.103 132.552 73.4572 129.354 76.1655 126.813C78.8843 124.271 82.2905 123 86.3739 123ZM86.4364 128.625C84.3791 128.625 82.6239 129.375 81.1655 130.875C79.7072 132.365 78.978 134.219 78.978 136.438C78.978 138.646 79.7124 140.516 81.1864 142.042C82.6551 143.557 84.4051 144.313 86.4364 144.313C88.478 144.313 90.2072 143.557 91.6239 142.042C93.0405 140.516 93.7489 138.646 93.7489 136.438C93.7489 134.219 93.0405 132.365 91.6239 130.875C90.2072 129.375 88.478 128.625 86.4364 128.625Z" fill="black"/>
<path d="M142.266 149.625H135.37L130.474 131.375L125.495 149.625H118.557L109.912 123.229H117.078L122.245 142.646L127.307 123.229H133.87L139.037 142.646L144.12 123.229H150.974L142.266 149.625Z" fill="black"/>
<path d="M181.914 128.625H173.955V149.625H167.247V128.625H159.372V123.188H181.914V128.625Z" fill="black"/>
<path d="M217.536 149.625H210.828V139.375H199.89V149.625H193.182V123.229H199.89V134.083H210.828V123.229H217.536V149.625Z" fill="black"/>
<path d="M82.5726 90.6252H64.3174V35.8856L82.5726 26.0991V90.6252Z" fill="#915325"/>
<path d="M108.64 106.932H90.3853V9.78646L108.64 0V106.932Z" fill="#915325"/>
<path d="M134.708 97.146H116.453V35.8856L134.708 26.0991V97.146Z" fill="#915325"/>
<path d="M160.776 77.573H142.521V13.047L160.776 3.2605V77.573Z" fill="#915325"/>
</svg>
