<svg width="200" height="100" viewBox="0 0 200 100" fill="none" xmlns="http://www.w3.org/2000/svg">
<path d="M78.9285 58.5711L89.9645 85.7141H81.25L71.4285 60.7859V85.7141H64.2855V14.2859H71.4285V56.2859L80.5 35.7141H89.607L78.9285 58.5711ZM50.357 34.2859C48.7931 34.3328 47.2581 35.137 45.8836 36.6297C44.509 38.1224 43.3358 40.2592 42.4645 42.857V35.7141H35.7145V85.7141H42.857V62.357C42.7632 60.6617 42.8449 58.9459 43.097 57.3164C43.3491 55.6869 43.7662 54.1787 44.3223 52.8855C44.8784 51.5923 45.5616 50.5419 46.3295 49.7997C47.0974 49.0574 47.9334 48.6392 48.7855 48.5711C52.9285 48.5711 53.5715 56.7141 53.5715 62.357V85.7141H60.7145V59.2141C60.7145 43.5 58.107 34.2859 50.5 34.2859H50.357ZM114.286 61.857C114.313 62.9039 114.313 63.9531 114.286 65H95.5355V65.5C95.8399 68.4786 96.665 71.1429 97.8628 73.0147C99.0607 74.8866 100.553 75.8436 102.071 75.7141C103.276 75.8189 104.479 75.4364 105.608 74.5897C106.738 73.7429 107.77 72.4492 108.643 70.7859L113.393 77.9289C111.887 81.0015 110.077 83.4089 108.077 84.9959C106.078 86.583 103.935 87.3144 101.786 87.143C100.006 87.3679 98.2223 86.8263 96.556 85.5548C94.8897 84.2832 93.3793 82.3113 92.1267 79.7722C90.8741 77.2331 89.9085 74.1859 89.2952 70.8365C88.6819 67.4871 88.4351 63.9135 88.5715 60.357C88.5349 56.8461 88.8603 53.3578 89.5274 50.1095C90.1944 46.8611 91.1889 43.9224 92.4487 41.4764C93.7086 39.0305 95.2068 37.1297 96.8501 35.8926C98.4934 34.6555 100.246 34.1086 102 34.2859C108.714 34.2859 114.286 43.7859 114.286 61.857ZM107.643 55.7141C107.617 54.2992 107.447 52.9099 107.143 51.6308C106.84 50.3516 106.409 49.2094 105.878 48.2738C105.347 47.3382 104.726 46.6287 104.053 46.1886C103.38 45.7486 102.669 45.5871 101.964 45.7141C98.8238 45.0352 95.9797 49.4594 95.5355 55.7141H107.643ZM7.14297 14.2859H0V85.7141H21.4285V71.4297H7.14297V14.2859ZM135.714 14.2859H142.857V85.7141H136.107V80.7141C135.25 82.8261 134.158 84.5075 132.917 85.6239C131.677 86.7402 130.323 87.2605 128.964 87.143C127.304 87.0577 125.671 86.2944 124.163 84.8998C122.656 83.5052 121.308 81.5089 120.2 79.0336C119.093 76.5583 118.251 73.6562 117.725 70.5058C117.199 67.3554 117.001 64.0232 117.143 60.7141C116.974 57.4002 117.152 54.0525 117.666 50.8839C118.18 47.7152 119.017 44.7951 120.126 42.3092C121.234 39.8234 122.589 37.8262 124.105 36.4449C125.62 35.0636 127.263 34.3283 128.929 34.2859C130.169 34.1772 131.408 34.5634 132.573 35.4218C133.738 36.2802 134.806 37.5938 135.714 39.2859V14.2859ZM136.25 60.7141C136.362 59.0647 136.296 57.3863 136.057 55.7921C135.817 54.1979 135.41 52.725 134.861 51.4727C134.313 50.2203 133.637 49.2177 132.878 48.5324C132.12 47.8471 131.297 47.495 130.464 47.5C127.048 47.9961 124.459 53.8727 124.643 60.7141C124.459 67.5555 127.048 73.4328 130.464 73.9289C131.297 73.9339 132.12 73.5818 132.879 72.8965C133.637 72.2111 134.313 71.2084 134.862 69.956C135.41 68.7036 135.818 67.2305 136.057 65.6363C136.297 64.042 136.362 62.3635 136.25 60.7141ZM28.5715 12.857C27.4229 12.8896 26.3232 13.7926 25.4946 15.3838C24.6659 16.9749 24.17 19.1357 24.107 21.4297C24.107 26.3602 26.1059 30.3578 28.5715 30.3578C31.0371 30.3578 33.0352 26.3594 33.0352 21.4297C32.9721 19.1359 32.4762 16.9755 31.6476 15.3845C30.8191 13.7936 29.7196 12.8906 28.5711 12.8578L28.5715 12.857ZM25 85.7141H32.143V35.7141H25V85.7141ZM200 7.14297V92.857C200 94.7515 199.624 96.5683 198.954 97.9079C198.284 99.2474 197.376 100 196.429 100H153.571C152.624 100 151.716 99.2474 151.046 97.9079C150.376 96.5683 150 94.7515 150 92.857V7.14297C150 5.24854 150.376 3.43169 151.046 2.09213C151.716 0.752561 152.624 0 153.571 0L196.429 0C197.376 0 198.284 0.752561 198.954 2.09213C199.624 3.43169 200 5.24854 200 7.14297ZM164.286 35.7141H157.143V85.7141H164.286V35.7141ZM165.179 21.4289C165.179 16.4977 163.18 12.5 160.714 12.5C158.249 12.5 156.25 16.4977 156.25 21.4289C156.25 26.3594 158.249 30.357 160.714 30.357C163.18 30.357 165.179 26.3594 165.179 21.4289ZM192.857 59.2141C192.857 43.5 190.25 34.2859 182.643 34.2859C181.055 34.2862 179.491 35.0682 178.089 36.563C176.688 38.0577 175.492 40.2193 174.607 42.857V35.7141H167.857V85.7141H175V62.357C174.906 60.6617 174.988 58.9459 175.24 57.3164C175.492 55.6869 175.909 54.1787 176.465 52.8855C177.021 51.5923 177.705 50.5419 178.472 49.7997C179.24 49.0574 180.076 48.6392 180.929 48.5711C185.071 48.5711 185.714 56.7141 185.714 62.357V85.7141H192.857V59.2141Z" fill="#F7F7F8"/>
</svg>
