<svg width="200" height="100" viewBox="0 0 200 100" fill="none" xmlns="http://www.w3.org/2000/svg">
<path d="M169.856 64.748C97.1043 58.0784 37.1062 78.421 23.4832 86.091C15.9473 90.0927 15.3676 95.0949 16.5269 97.7627C17.3965 99.7636 21.1644 101.097 24.9324 98.7631C53.9168 80.7553 112.176 66.4154 169.856 70.4175C170.199 70.4192 170.539 70.3427 170.856 70.1924C171.173 70.0422 171.461 69.8211 171.704 69.542C171.946 69.263 172.138 68.9314 172.269 68.5665C172.4 68.2015 172.466 67.8104 172.464 67.4158C172.464 66.0819 171.305 64.748 169.856 64.748H169.856ZM187.827 39.4037C184.638 43.4054 180.291 46.4067 178.841 45.0728C177.392 43.7389 178.841 38.7367 178.841 38.7367C186.087 33.4011 200 19.7281 200 9.0568C200 -0.614042 192.464 -3.61534 184.638 5.38855C178.261 13.392 173.624 23.3963 171.015 34.0681C166.957 38.7367 160.291 44.7393 154.494 44.7393C151.306 44.7393 150.726 42.0715 151.016 38.7367C155.943 38.7367 169.856 34.0681 169.856 20.7285C169.856 18.3942 168.986 16.3933 167.537 14.7259C166.088 13.0585 164.349 12.3916 162.32 12.7251C155.943 12.7251 148.118 20.0616 144.059 30.7333C143.19 30.3998 142.03 30.0663 141.161 29.3994C142.32 26.7311 142.9 24.0633 143.77 21.3955C144.639 15.7264 142.61 12.3916 138.842 13.0585C136.234 13.0585 133.335 15.7264 132.466 21.3955C132.176 24.3968 132.755 27.3981 133.625 29.7324C131.886 36.0689 124.93 43.7389 122.611 43.4054C120.292 43.072 122.901 32.0672 125.22 23.7298C126.669 22.0624 127.538 20.395 128.408 18.0607C128.988 16.3933 128.698 14.3924 127.248 13.7255C123.77 12.0581 119.713 14.059 118.263 18.0607C117.394 20.0616 116.524 22.0624 115.655 24.3968C113.626 27.0646 110.727 30.7333 109.858 30.3998C108.698 29.3994 113.046 22.7294 112.466 18.7281C112.176 15.7264 109.568 13.392 106.959 13.7259C102.901 14.3924 97.9738 23.0629 97.9738 23.0629C98.5535 21.3955 98.8434 19.7281 99.1332 18.0607C98.8434 14.7259 93.6262 13.392 91.0176 19.3946C89.2785 25.0637 87.8293 31.0663 87.2496 37.0694C86.0902 39.7372 81.7426 47.7406 78.2641 48.0741C75.3656 48.4076 78.8437 33.7346 79.4234 33.0676C80.8727 30.3998 82.9019 24.7307 82.6121 22.0624C82.6121 20.7285 82.3223 19.7281 81.4527 19.0611C80.5832 18.3942 79.4234 18.0607 78.5543 18.3942C76.8148 19.0611 75.3656 20.395 74.4961 22.0624C73.3367 20.395 71.3078 19.3946 69.2789 19.7281C57.6852 21.062 50.4391 44.4059 51.3086 55.4106C51.8883 61.4132 54.4969 65.0815 58.8445 64.081C63.7719 63.4141 67.8297 54.7437 67.8297 54.7437C67.8297 54.7437 68.9891 61.7467 74.4961 61.0797C78.5539 59.7458 82.0324 56.7445 84.6406 52.7428C84.6406 53.0763 84.3512 53.4097 84.3512 54.0767C83.4816 60.0793 91.8871 59.4123 92.4668 54.7437C95.0754 32.4007 101.452 23.3963 103.191 23.3963C104.64 23.3963 99.1332 33.7346 102.321 38.0698C104.93 41.4046 109.278 38.7367 113.046 35.0685C112.466 37.7363 112.176 40.7376 111.886 43.4054C111.596 49.7415 113.626 54.7437 118.843 54.4102C125.799 54.0767 133.045 44.0724 137.973 34.735C139.132 35.7354 140.581 36.4024 142.03 36.7359C141.451 39.0702 141.451 41.4046 141.451 43.4054C141.741 50.7419 146.088 53.4098 151.306 53.0763C157.103 52.7428 164.059 47.7406 168.696 42.7385C168.696 43.072 168.696 43.4054 168.407 43.4054C168.117 47.0737 168.696 53.4098 173.044 53.7432C177.971 54.0767 186.667 48.4076 191.015 42.0715C194.203 40.0707 190.435 36.0689 187.827 39.4037ZM192.464 9.39028C193.044 9.39028 193.334 10.0572 193.334 10.7242C193.334 17.0603 180.001 30.0663 180.001 30.0663C180.001 30.0663 188.696 9.39028 192.464 9.39028ZM160.001 22.3959C160.58 22.3959 160.87 22.3959 161.16 23.0629C161.45 23.7298 161.45 24.0633 161.45 24.3968C161.45 28.065 157.392 30.7333 152.755 30.7333C155.363 26.3976 157.972 22.3964 160.001 22.3964V22.3959ZM70.1484 32.0672C69.8586 35.7354 64.0617 52.7428 61.1633 52.7428C57.3953 53.0763 63.1922 29.0654 69.2789 29.0654C70.4383 29.0654 70.4383 30.0663 70.1484 32.0672ZM21.1641 36.7359C24.9324 36.7359 17.9762 59.0789 18.8457 68.7502C19.7152 78.421 28.9902 75.7532 28.4105 70.0841C27.2508 60.4123 33.0476 30.0663 38.5551 30.0663C42.6129 30.0663 33.9176 50.7419 35.6566 63.7475C36.816 72.0845 46.6707 69.7506 45.5113 64.081C42.323 47.0737 52.7574 30.7333 51.3082 18.7276C50.7289 13.7255 48.1203 11.0577 45.5113 11.0577C36.2363 11.0577 28.7004 33.0676 28.7004 33.0676C28.7004 33.0676 29.8598 20.7285 22.034 20.0616C11.0195 19.3946 -0.284386 51.4093 0.00545801 80.4219C0.295302 89.7592 10.15 88.0919 9.5703 80.7553C8.99061 67.7497 15.3672 36.7359 21.1641 36.7359Z" fill="#F7F7F8"/>
</svg>
