<svg width="200" height="100" viewBox="0 0 200 100" fill="none" xmlns="http://www.w3.org/2000/svg">
<path d="M57.6203 70.9686C57.3391 69.7098 57.0102 68.4921 56.6973 67.364C56.2152 65.6388 55.7241 63.9201 55.2238 62.2081L55.1848 62.0742C50.7656 46.8352 46.1382 31.7518 41.3059 16.8348L41.0992 16.1973C40.5968 14.6326 40.0856 13.0751 39.5656 11.5251C38.9418 9.55454 38.185 7.69833 37.3086 5.98935C36.3216 4.11321 35.0885 2.60483 33.6961 1.57049C32.303 0.535727 30.7846 -0.000322507 29.2475 1.45568e-07C27.7105 0.000322798 26.1922 0.53701 24.7992 1.57236C23.407 2.60718 22.1742 4.11598 21.1875 5.99246C20.3124 7.70181 19.5563 9.5575 18.9324 11.5269C18.4078 13.0913 17.8919 14.6631 17.3848 16.2421L17.1934 16.8335C12.3611 31.7514 7.73358 46.8354 3.31409 62.0748L3.2508 62.2927C2.7592 63.9766 2.27624 65.6669 1.80198 67.3634C1.48948 68.4908 1.16096 69.7079 0.87932 70.9698C0.0725292 74.4068 -0.184685 78.1099 0.130883 81.7449C0.466027 85.4196 1.39845 88.8906 2.83557 91.8134C4.27374 94.7386 6.16624 97.0146 8.3258 98.4162C9.95784 99.4684 11.7024 100.006 13.4629 99.9999C14.016 99.9999 14.5688 99.9483 15.1184 99.8462C17.3448 99.3941 19.4923 98.2394 21.4356 96.4495C23.9836 94.1679 26.5004 90.8242 29.2496 86.0461C31.9988 90.8242 34.5153 94.1679 37.0637 96.4489C39.0068 98.2392 41.1544 99.3942 43.3809 99.8462C43.9304 99.9483 44.4831 99.9997 45.0363 99.9999C46.7969 100.006 48.5414 99.4683 50.1731 98.4162C52.3327 97.0146 54.2254 94.7386 55.6637 91.8134C57.1008 88.8907 58.0332 85.4196 58.3684 81.7449C58.6837 78.1095 58.4266 74.4062 57.6203 70.9686V70.9686ZM29.2496 76.1775C25.8461 69.302 23.6625 62.9172 22.8961 57.5651C22.5821 55.5596 22.5079 53.4779 22.6774 51.4286C22.8114 49.926 23.1577 48.4915 23.6903 47.2333C24.346 45.8783 25.1882 44.7814 26.152 44.0271C27.1162 43.2729 28.176 42.8809 29.2501 42.8811C30.3242 42.8813 31.384 43.2738 32.3481 44.0284C33.3117 44.7827 34.1538 45.8796 34.8094 47.2345C35.3418 48.493 35.6882 49.9277 35.8223 51.4305C35.9916 53.4804 35.9171 55.5628 35.6028 57.5688C34.8356 62.9209 32.6524 69.3039 29.2496 76.1775V76.1775ZM54.3934 80.8397C54.159 83.4088 53.5071 85.8355 52.5024 87.8789C51.4967 89.9243 50.1734 91.5157 48.6633 92.4957C47.1356 93.4711 45.4783 93.8167 43.8445 93.5005C42.1466 93.152 40.5102 92.2613 39.0332 90.8815C36.7649 88.8507 34.4688 85.733 31.8848 81.1591C35.9981 73.0765 38.5668 65.6265 39.5176 58.9901C39.9455 56.2001 40.0383 53.3062 39.791 50.4612C39.5667 48.0095 38.9958 45.6711 38.1215 43.6225C37.0965 41.4111 35.7599 39.6141 34.2195 38.3762C32.6783 37.1376 30.9762 36.4924 29.25 36.4924C27.5239 36.4924 25.8218 37.1376 24.2805 38.3762C22.74 39.6135 21.4033 41.41 20.3781 43.6212C19.504 45.6691 18.9332 48.0066 18.7086 50.4574C18.4612 53.3015 18.5534 56.1945 18.9805 58.9839C19.9309 65.6221 22.4996 73.0747 26.6141 81.1597C24.0305 85.733 21.7344 88.8507 19.466 90.8821C17.9891 92.2617 16.3527 93.1523 14.6547 93.5005C13.0209 93.8167 11.3634 93.4711 9.83557 92.4957C8.32569 91.5158 7.0025 89.9246 5.9969 87.8795C4.99226 85.8359 4.34049 83.4089 4.10627 80.8397C3.88121 78.2287 4.07279 75.5694 4.6633 73.1077C4.88752 72.1016 5.15041 71.1155 5.4758 69.9426C5.94121 68.2783 6.41505 66.62 6.89729 64.9678L6.96057 64.7487C11.3558 49.5942 15.958 34.5942 20.7637 19.7595L20.9559 19.165C21.4481 17.6441 21.9567 16.0709 22.4699 14.5513C22.9611 12.9845 23.5554 11.5055 24.243 10.1393C24.8532 8.96649 25.6182 8.02254 26.4834 7.3746C27.3487 6.72666 28.2929 6.39068 29.2489 6.39056C30.2048 6.39044 31.1491 6.72619 32.0144 7.37391C32.8797 8.02163 33.6447 8.9654 34.2551 10.138C34.9432 11.5031 35.5377 12.9816 36.0285 14.5482C36.5367 16.0547 37.041 17.6136 37.5289 19.1208L37.736 19.7601C42.5418 34.5948 47.1438 49.595 51.5387 64.7499L51.5778 64.8844C52.0582 66.5423 52.5555 68.2555 53.0235 69.9432C53.3492 71.1174 53.6125 72.1047 53.8363 73.107C54.4265 75.5689 54.6181 78.2281 54.3934 80.8391V80.8397ZM81.7344 75.3725C80.168 75.3725 78.7266 74.8726 77.4102 73.8715C76.0938 72.8705 74.966 71.4685 73.9633 69.6675C72.9606 67.8658 72.2086 65.7641 71.6442 63.4613C71.0801 61.0588 70.8293 58.456 70.8293 55.6539C70.8293 52.8512 71.143 50.148 71.707 47.7456C72.2711 45.3438 73.086 43.2415 74.0887 41.3396C75.0914 39.5379 76.282 38.0363 77.6609 37.0353C79.0399 36.0342 80.4813 35.5337 82.1109 35.5337C83.6774 35.5337 85.0563 36.0342 86.3102 37.1355C87.5637 38.1366 88.5664 39.6382 89.3809 41.5394L89.5691 36.635H95.3348V74.3721H89.5691L89.3809 68.8669C88.5664 70.8684 87.5008 72.4702 86.1219 73.6711C84.8684 74.773 83.3641 75.3731 81.7348 75.3731L81.7344 75.3725ZM83.2391 66.3642C84.3672 66.3642 85.3699 65.8637 86.3102 64.9629C87.1875 63.9618 87.8766 62.6607 88.441 61.0595C88.9422 59.4576 89.193 57.5558 89.193 55.4534C89.193 53.3511 88.9422 51.4492 88.441 49.848C87.9395 48.2461 87.1871 46.945 86.3102 45.9446C85.4324 44.9429 84.3672 44.5426 83.2391 44.5426C82.1109 44.5426 81.1082 45.0431 80.168 45.944C79.2906 46.945 78.6012 48.2461 78.0371 49.8473C77.5356 51.4492 77.2848 53.3511 77.2848 55.4534C77.2848 57.5558 77.5356 59.4576 78.0371 61.0588C78.5383 62.6607 79.2906 63.9618 80.168 64.9622C81.1082 65.8637 82.1109 66.3642 83.2391 66.3642ZM105.175 26.4245C105.175 27.5258 105.05 28.5269 104.736 29.3275C104.411 30.1624 103.958 30.8515 103.42 31.3296C102.856 31.8301 102.229 32.03 101.603 32.03C100.976 32.03 100.349 31.8301 99.7848 31.3296C99.2464 30.8515 98.7934 30.1624 98.4688 29.3275C98.1555 28.4267 98.0301 27.5258 98.0301 26.4245C98.0301 25.3239 98.1551 24.3228 98.4688 23.5216C98.782 22.6208 99.2207 22.0206 99.7852 21.5201C100.349 21.0196 100.976 20.8191 101.603 20.8191C102.229 20.8191 102.856 21.0196 103.42 21.5201C103.958 21.9979 104.412 22.6868 104.736 23.5216C104.987 24.3228 105.175 25.2236 105.175 26.4245V26.4245ZM98.4688 74.2718V36.5347H104.736V74.2718H98.4688V74.2718ZM121.47 46.4439V46.5447C121.157 46.3443 120.781 46.244 120.467 46.1444C120.091 46.0442 119.778 46.0442 119.402 46.0442C117.647 46.0442 116.331 46.8448 115.454 48.5468C114.513 50.2483 114.075 52.6507 114.075 55.7535V74.2718H107.807V36.5347H113.573L113.761 42.2404C114.388 40.2383 115.14 38.7367 116.205 37.636C117.208 36.5341 118.399 36.0342 119.778 36.0342C120.217 36.0342 120.655 36.1338 121.032 36.2341C121.219 36.3343 121.345 36.3343 121.47 36.4345V46.4445V46.4439ZM123.977 74.2718V21.0189H130.245V41.339C131.122 39.5379 132.125 38.1359 133.378 37.0353C134.632 36.0342 136.011 35.4335 137.577 35.4335C139.144 35.4335 140.586 35.934 141.902 36.935C143.218 37.9361 144.346 39.3375 145.349 41.1391C146.352 42.9408 147.104 45.0431 147.668 47.3459C148.232 49.7477 148.482 52.35 148.482 55.1527C148.482 57.9561 148.169 60.6585 147.605 63.061C147.041 65.4634 146.227 67.5651 145.223 69.467C144.221 71.2693 143.03 72.7702 141.651 73.7713C140.272 74.7724 138.831 75.2729 137.202 75.2729C135.634 75.2729 134.256 74.7724 133.002 73.6711C131.748 72.67 130.746 71.1684 129.931 69.2672L129.743 74.1716L123.977 74.2718H123.977ZM136.073 66.3642C137.202 66.3642 138.204 65.8637 139.144 64.9629C140.021 63.9618 140.711 62.6607 141.275 61.0595C141.777 59.4576 142.027 57.5558 142.027 55.4534C142.027 53.3511 141.777 51.4492 141.275 49.848C140.711 48.2461 140.021 46.945 139.144 45.9446C138.267 44.9429 137.202 44.5426 136.073 44.5426C134.945 44.5426 133.942 45.0431 133.002 45.944C132.125 46.945 131.435 48.2461 130.871 49.8473C130.37 51.4492 130.119 53.3511 130.119 55.4534C130.119 57.5558 130.37 59.4576 130.871 61.0588C131.373 62.6607 132.125 63.9618 133.002 64.9622C133.942 65.8637 134.945 66.3642 136.073 66.3642ZM150.864 74.2718V36.5347H156.63L156.818 41.4398C157.508 39.6375 158.448 38.2362 159.639 37.1355C160.829 36.0342 162.208 35.5337 163.775 35.5337C165.53 35.5337 167.034 36.2341 168.288 37.5358C169.604 38.8369 170.607 40.7388 171.296 43.1412C171.986 45.5437 172.361 48.446 172.361 51.7499V74.3721H166.094V53.051C166.094 50.4487 165.718 48.3464 164.966 46.8442C164.214 45.3438 163.211 44.5426 161.895 44.5426C160.955 44.5426 160.14 44.8427 159.388 45.5437C158.698 46.244 158.134 47.1449 157.696 48.4466C157.257 49.6475 157.069 51.1485 157.069 52.6507V74.2718H150.864V74.2718ZM175.495 74.2718V21.0189H181.763V41.339C182.64 39.5379 183.643 38.1359 184.896 37.0353C186.15 36.0342 187.529 35.4335 189.095 35.4335C190.663 35.4335 192.104 35.934 193.42 36.935C194.736 37.9361 195.864 39.3375 196.867 41.1391C197.871 42.9408 198.621 45.0431 199.186 47.3459C199.751 49.7477 200 52.35 200 55.1527C200 57.9561 199.688 60.6585 199.123 63.061C198.559 65.4634 197.745 67.5651 196.741 69.467C195.739 71.2693 194.548 72.7702 193.169 73.7713C191.79 74.7724 190.349 75.2729 188.72 75.2729C187.153 75.2729 185.774 74.7724 184.52 73.6711C183.266 72.67 182.264 71.1684 181.449 69.2672L181.261 74.1716L175.495 74.2718V74.2718ZM187.654 66.3642C188.782 66.3642 189.785 65.8637 190.725 64.9629C191.602 63.9618 192.291 62.6607 192.856 61.0595C193.357 59.4576 193.608 57.5558 193.608 55.4534C193.608 53.3511 193.357 51.4492 192.856 49.848C192.355 48.2461 191.602 46.945 190.725 45.9446C189.847 44.9429 188.782 44.5426 187.654 44.5426C186.526 44.5426 185.523 45.0431 184.583 45.944C183.705 46.945 183.016 48.2461 182.452 49.8473C181.888 51.4492 181.7 53.3511 181.7 55.4534C181.7 57.5558 181.951 59.4576 182.452 61.0588C182.954 62.6607 183.706 63.9618 184.583 64.9622C185.523 65.8637 186.463 66.3642 187.654 66.3642Z" fill="black"/>
</svg>
