<svg width="200" height="100" viewBox="0 0 200 100" fill="none" xmlns="http://www.w3.org/2000/svg">
<path d="M0 0H200V100H0V0ZM56.6172 75.4175L56.6141 66.4758H53.0984V47.6449C53.0984 37.8677 48.7598 33.389 44.0137 33.389C39.8512 33.389 36.8645 36.7739 35.3988 42.2551C34.1098 36.224 30.5867 33.389 26.7844 33.389C23.0957 33.389 20.3406 36.0406 18.757 40.4225V34.2136H7.39453V43.1662H11.1969V66.4758H7.68125V75.4284H23.7973V66.4758H18.7711V52.1182C18.7711 46.3617 20.2367 42.341 23.8699 42.341C26.8602 42.341 28.3816 45.0846 28.3816 52.2095V75.4284H39.4434V66.4758H35.9453V52.1182C35.9453 46.3617 37.4113 42.341 41.0445 42.341C44.0312 42.341 45.5555 45.0846 45.5555 52.2095V75.4175H56.618H56.6172ZM73.4352 76.3286V76.3335C81.8738 76.3335 87.9684 68.0173 87.9613 54.8557C87.9613 43.3434 83.3223 33.3835 73.8363 33.3835C64.3504 33.3835 59.6629 43.3434 59.6629 55.4057C59.6629 68.5617 65.2906 76.3286 73.4352 76.3286V76.3286ZM73.7258 42.4329C77.3039 42.4329 80.1727 46.1784 80.1832 54.4946C80.1832 62.3528 77.6043 67.284 73.6773 67.284C69.5637 67.284 67.4547 61.8028 67.4547 54.6779C67.4547 46.9062 69.857 42.4329 73.7258 42.4329ZM115.513 75.4175L117.138 60.9898L111.161 60.0787L109.93 66.4758H101.388L116.045 40.4219L115.461 34.2081H92.2305L91.2938 48.6468L96.7453 49.5579L97.9172 43.1601H106.179L91.6602 69.203L92.4207 75.4175H115.513V75.4175ZM129.811 49.0079V34.2136H121.898V49.0079H129.811ZM129.811 75.4175V60.6177H121.898V75.4175H129.811ZM133.959 75.4175H141.412L152.841 12.5793H145.398L133.959 75.4175H133.959ZM149.314 75.4175H156.768L168.189 12.5793H160.747L149.315 75.4175H149.314ZM188.696 76.3286L188.706 76.3335C190.371 76.3007 192.005 75.6349 193.466 74.3937L193.408 68.1793C193.047 68.3528 192.672 68.4454 192.295 68.4539C191.06 68.4539 190.476 67.6293 190.476 65.2523V47.3428C190.476 37.9323 185.671 33.3622 179.984 33.3622C175.646 33.3622 173.302 34.2087 168.673 37.135L167.502 47.8221L173.537 48.8301L174.516 42.9823C175.746 41.9798 176.977 41.7971 178.56 41.7971C182.84 41.7971 182.898 46.8197 182.898 51.0238V52.3928C181.459 52.1293 180.01 52.0068 178.56 52.0262C172.525 52.0262 166.254 54.3977 166.254 64.5416C166.254 73.127 170.595 76.3286 174.398 76.3286C178.674 76.3286 181.371 72.3078 182.895 68.1038C183.248 73.127 185.18 76.3286 188.696 76.3286H188.696ZM174.056 63.1719C174.056 58.6986 176.4 57.5129 179.107 57.5184C180.38 57.563 181.651 57.743 182.909 58.0573C182.736 64.9076 179.863 67.9259 177.167 67.9259C174.875 67.9259 174.056 65.8242 174.056 63.1719V63.1719Z" fill="black"/>
</svg>
