<svg width="200" height="100" viewBox="0 0 200 100" fill="none" xmlns="http://www.w3.org/2000/svg">
<path d="M78.8955 1.30582e-05C78.3886 -0.0015676 77.8864 0.140367 77.4179 0.417648C76.9494 0.694929 76.5239 1.10208 76.1658 1.61566C75.8077 2.12925 75.5241 2.73912 75.3314 3.41017C75.1386 4.08123 75.0405 4.8002 75.0427 5.52573V94.4623C75.0416 95.1869 75.1405 95.9046 75.3338 96.5742C75.527 97.2439 75.8108 97.8524 76.1687 98.3647C76.5267 98.877 76.9519 99.2831 77.4198 99.5596C77.8878 99.8362 78.3893 99.9777 78.8955 99.9761H196.147V100C196.653 100.002 197.155 99.86 197.623 99.5835C198.091 99.3069 198.516 98.9009 198.874 98.3886C199.232 97.8762 199.516 97.2678 199.709 96.5981C199.902 95.9284 200.001 95.2107 200 94.4862V5.52573C200.001 4.80121 199.902 4.08351 199.709 3.41384C199.516 2.74417 199.232 2.1357 198.874 1.62339C198.516 1.11107 198.091 0.704991 197.623 0.428455C197.155 0.151919 196.653 0.0103734 196.147 0.0119468L78.8955 1.30582e-05ZM34.8136 0.0954886C26.0415 0.144636 17.6031 4.91275 11.1737 13.4532C4.74431 21.9936 0.7941 33.6818 0.107337 46.1971C-0.579426 58.7125 2.04748 71.1399 7.46652 81.0119C12.8856 90.8839 20.7004 97.4786 29.3596 99.4868V64.5423H20.4281V50.0895H29.3513V39.062C29.3513 26.5306 34.53 19.5727 42.5192 19.5727C46.3303 19.5727 50.2998 20.623 50.2998 20.623V32.844H45.93C41.5935 32.844 40.2008 36.7466 40.2008 40.6731V50.0656H49.9078L48.3484 64.5065H40.1841V99.4629C48.8739 97.5239 56.7326 90.9643 62.1904 81.0947C67.6481 71.225 70.303 58.7719 69.6248 46.2231C68.9465 33.6742 64.9851 21.9535 58.5318 13.4024C52.0784 4.85119 43.6084 0.0991311 34.8136 0.0954886V0.0954886ZM94.5819 28.8221H99.8774V64.5423H113.454V71.1541H94.5819V28.8221ZM119.141 28.8221H124.437V71.1541H119.141V28.8221ZM129.516 28.8221H135.37L142.817 62.3344H143.175L150.564 28.8221H156.193L145.961 71.1541H139.848L129.516 28.8221ZM161.289 28.8579H180.436V35.3861H166.592V46.6046H179.685V52.7748H166.592V64.6259H180.436V71.1899H161.289V28.8579Z" fill="black"/>
</svg>
