<svg width="200" height="100" viewBox="0 0 200 100" fill="none" xmlns="http://www.w3.org/2000/svg">
<path d="M0 24.3637H11.9043L18.8145 56.2724L25.8262 24.3637H37.4277L19.9746 100H8.32266L13.1148 79.9997L0 24.3637ZM49.4828 23.0909C40.5547 23.0909 34.9055 37.5457 34.9055 51.9089C34.9055 68.0906 41.1098 80.9093 49.3316 80.9093C55.4855 80.9093 57.8059 74.1818 57.8059 74.1818V79.4548H68.1965V24.3637H57.8059V29.3636C57.7551 29.3636 55.1828 23.0909 49.4828 23.0909V23.0909ZM51.7023 40.8179C55.8387 40.8179 57.957 46.7274 57.957 51.9997C57.957 57.7269 55.6875 63.3639 51.7023 63.3639C48.4238 63.3639 45.4477 58.5457 45.4477 52.2729C45.4477 45.9086 47.8188 40.8186 51.7023 40.8186V40.8179ZM71.7277 79.4541V0H82.5727V29.5453C82.5727 29.5453 85.1449 23.0909 90.5422 23.0909C97.15 23.0909 101.034 32.0002 101.034 44.6365V79.4548H90.2395V49.3639C90.2395 45.0906 89.1301 40.9087 86.5574 40.9087C83.9344 40.9087 82.5727 45.0906 82.5727 49.3639V79.4548H71.7277V79.4541ZM119.546 23.0916C109.306 23.0916 103.203 37.0916 103.203 52.1828C103.203 69.2734 110.568 81.0008 119.596 81.0008C128.323 81.0008 135.939 69.819 135.939 52.4552C135.939 33.4554 127.919 23.0916 119.546 23.0916ZM119.647 40.9101C123.279 40.9101 125.75 46.3641 125.75 52.0913C125.75 57.0003 123.43 63.0915 119.647 63.0915C116.166 63.0915 113.594 58.0916 113.594 52.0004C113.594 46.2733 115.712 40.9094 119.647 40.9094V40.9101ZM153.998 23.0916C143.758 23.0916 137.654 37.0916 137.654 52.1828C137.654 69.2734 145.019 81.0008 154.048 81.0008C162.775 81.0008 170.391 69.819 170.391 52.4552C170.391 33.4554 162.421 23.0916 153.998 23.0916V23.0916ZM154.098 40.9101C157.73 40.9101 160.202 46.3641 160.202 52.0913C160.202 57.0003 157.882 63.0915 154.098 63.0915C150.618 63.0915 148.045 58.0916 148.045 52.0004C148.045 46.2733 150.214 40.9094 154.098 40.9094V40.9101ZM178.966 54.637C182.951 54.637 186.179 60.4549 186.179 67.6373C186.179 74.8182 182.951 80.6368 178.966 80.6368C174.981 80.6368 171.753 74.8189 171.753 67.6373C171.753 60.4549 174.981 54.637 178.966 54.637H178.966ZM188.55 49.9095H175.586L187.087 0H200L188.55 49.9088V49.9095Z" fill="black"/>
</svg>
