<svg width="60" height="60" viewBox="0 0 60 60" fill="none" xmlns="http://www.w3.org/2000/svg">
<path d="M32.5278 36.3125C32.2149 35.903 31.827 35.5743 31.3907 35.349C30.9544 35.1237 30.4801 35.007 30 35.007C29.52 35.007 29.0456 35.1237 28.6093 35.349C28.173 35.5743 27.7852 35.903 27.4722 36.3125L14.1389 53.8125C13.7187 54.3522 13.4476 55.0181 13.3587 55.7286C13.2699 56.4391 13.3673 57.1633 13.6389 57.8125C13.9046 58.4648 14.3312 59.0176 14.8679 59.4054C15.4045 59.7931 16.0288 59.9995 16.6667 60H43.3333C43.9712 59.9995 44.5955 59.7931 45.1321 59.4054C45.6688 59.0176 46.0954 58.4648 46.3611 57.8125C46.6327 57.1633 46.7301 56.4391 46.6413 55.7286C46.5525 55.0181 46.2813 54.3522 45.8611 53.8125L32.5278 36.3125ZM23.9167 52.5L30 44.5L36.0833 52.5H23.9167ZM60 8.75V43.75C59.9927 46.0681 59.1709 48.2889 57.7139 49.9281C56.2568 51.5672 54.2828 52.4918 52.2222 52.5C51.3382 52.5 50.4903 52.1049 49.8652 51.4016C49.2401 50.6984 48.8889 49.7446 48.8889 48.75C48.8889 47.7554 49.2401 46.8016 49.8652 46.0984C50.4903 45.3951 51.3382 45 52.2222 45C52.5169 45 52.7995 44.8683 53.0079 44.6339C53.2163 44.3995 53.3333 44.0815 53.3333 43.75V8.75C53.3333 8.41848 53.2163 8.10054 53.0079 7.86612C52.7995 7.6317 52.5169 7.5 52.2222 7.5H7.77778C7.48309 7.5 7.20048 7.6317 6.9921 7.86612C6.78373 8.10054 6.66667 8.41848 6.66667 8.75V43.75C6.66667 44.0815 6.78373 44.3995 6.9921 44.6339C7.20048 44.8683 7.48309 45 7.77778 45C8.66183 45 9.50968 45.3951 10.1348 46.0984C10.7599 46.8016 11.1111 47.7554 11.1111 48.75C11.1111 49.7446 10.7599 50.6984 10.1348 51.4016C9.50968 52.1049 8.66183 52.5 7.77778 52.5C5.71724 52.4918 3.74318 51.5672 2.28615 49.9281C0.829112 48.2889 0.00731994 46.0681 0 43.75V8.75C0.00731994 6.43189 0.829112 4.21107 2.28615 2.57191C3.74318 0.932751 5.71724 0.00823493 7.77778 0H52.2222C54.2828 0.00823493 56.2568 0.932751 57.7139 2.57191C59.1709 4.21107 59.9927 6.43189 60 8.75V8.75Z" fill="white"/>
</svg>
