<svg width="30" height="30" viewBox="0 0 30 30" fill="none" xmlns="http://www.w3.org/2000/svg">
<path d="M16.2639 18.1562C16.1074 17.9515 15.9135 17.7871 15.6954 17.6745C15.4772 17.5618 15.24 17.5035 15 17.5035C14.76 17.5035 14.5228 17.5618 14.3046 17.6745C14.0865 17.7871 13.8926 17.9515 13.7361 18.1562L7.06944 26.9062C6.85934 27.1761 6.72378 27.5091 6.67937 27.8643C6.63497 28.2196 6.68364 28.5817 6.81944 28.9062C6.95232 29.2324 7.16559 29.5088 7.43393 29.7027C7.70227 29.8966 8.01442 29.9997 8.33333 30H21.6667C21.9856 29.9997 22.2977 29.8966 22.5661 29.7027C22.8344 29.5088 23.0477 29.2324 23.1806 28.9062C23.3164 28.5817 23.365 28.2196 23.3206 27.8643C23.2762 27.5091 23.1407 27.1761 22.9306 26.9062L16.2639 18.1562ZM11.9583 26.25L15 22.25L18.0417 26.25H11.9583ZM30 4.375V21.875C29.9963 23.0341 29.5854 24.1445 28.8569 24.964C28.1284 25.7836 27.1414 26.2459 26.1111 26.25C25.6691 26.25 25.2452 26.0525 24.9326 25.7008C24.62 25.3492 24.4444 24.8723 24.4444 24.375C24.4444 23.8777 24.62 23.4008 24.9326 23.0492C25.2452 22.6975 25.6691 22.5 26.1111 22.5C26.2585 22.5 26.3998 22.4342 26.5039 22.3169C26.6081 22.1997 26.6667 22.0408 26.6667 21.875V4.375C26.6667 4.20924 26.6081 4.05027 26.5039 3.93306C26.3998 3.81585 26.2585 3.75 26.1111 3.75H3.88889C3.74155 3.75 3.60024 3.81585 3.49605 3.93306C3.39187 4.05027 3.33333 4.20924 3.33333 4.375V21.875C3.33333 22.0408 3.39187 22.1997 3.49605 22.3169C3.60024 22.4342 3.74155 22.5 3.88889 22.5C4.33092 22.5 4.75484 22.6975 5.0674 23.0492C5.37996 23.4008 5.55556 23.8777 5.55556 24.375C5.55556 24.8723 5.37996 25.3492 5.0674 25.7008C4.75484 26.0525 4.33092 26.25 3.88889 26.25C2.85862 26.2459 1.87159 25.7836 1.14307 24.964C0.414556 24.1445 0.00365997 23.0341 0 21.875V4.375C0.00365997 3.21595 0.414556 2.10554 1.14307 1.28596C1.87159 0.466376 2.85862 0.00411746 3.88889 0H26.1111C27.1414 0.00411746 28.1284 0.466376 28.8569 1.28596C29.5854 2.10554 29.9963 3.21595 30 4.375V4.375Z" fill="black"/>
</svg>
